<?xml version="1.0" standalone="no"?><!DOCTYPE svg PUBLIC "-//W3C//DTD SVG 1.1//EN" "http://www.w3.org/Graphics/SVG/1.1/DTD/svg11.dtd"><svg t="1676790397586" class="icon" viewBox="0 0 1024 1024" version="1.1" xmlns="http://www.w3.org/2000/svg" p-id="6241" xmlns:xlink="http://www.w3.org/1999/xlink" width="200" height="200"><path d="M127.573333 376.32a85.333333 85.333333 0 0 1 24.490667-59.904L359.253333 105.941333a85.333333 85.333333 0 0 1 60.8-25.472h42.88l3.328-0.213333 215.936-0.085333a213.333333 213.333333 0 0 1 213.162667 204.074666l0.170667 9.258667v426.666667a213.333333 213.333333 0 0 1-204.074667 213.12l-9.258667 0.213333h-341.333333a213.333333 213.333333 0 0 1-213.12-204.074667l-0.213333-9.258666v-343.893334z m554.666667-210.816h-212.565333v128.682667c0 3.797333-0.170667 7.552-0.469334 11.264L469.333333 298.666667a128 128 0 0 1-128 128H212.906667v293.504a128 128 0 0 0 120.448 127.786666l7.509333 0.213334h341.333333a128 128 0 0 0 127.786667-120.490667l0.213333-7.509333v-426.666667a128 128 0 0 0-120.448-127.786667l-7.552-0.213333z m8.704 267.733333c16.896 16.938667 16.981333 43.946667 0.384 60.757334l-124.16 125.525333a85.333333 85.333333 0 0 1-120.661333 0.682667l-75.434667-75.477334a42.666667 42.666667 0 0 1-3.584-56.32l3.584-4.010666a42.666667 42.666667 0 0 1 60.373333 0l45.013334 45.013333a42.666667 42.666667 0 0 0 56.32 3.584l4.266666-3.797333 93.994667-95.488a42.325333 42.325333 0 0 1 59.904-0.426667zM384 205.994667L253.098667 336.853333h88.576A42.666667 42.666667 0 0 0 384 299.733333V205.994667z" fill="#2c2c2c" p-id="6242"></path></svg>