<!--
  - Copyright 2024 XIN LIN HOU<hxl49508@gmail.com>
  - curl_dark.svg is part of Cool Request
  -
  - License: GPL-3.0+
  -
  - Cool Request is free software: you can redistribute it and/or modify
  - it under the terms of the GNU General Public License as published by
  - the Free Software Foundation, either version 3 of the License, or
  - (at your option) any later version.
  -
  - Cool Request is distributed in the hope that it will be useful,
  - but WITHOUT ANY WARRANTY; without even the implied warranty of
  - MERCHANTABILITY or FITNESS FOR A PARTICULAR PURPOSE.  See the
  - GNU General Public License for more details.
  -
  - You should have received a copy of the GNU General Public License
  - along with Cool Request.  If not, see <http://www.gnu.org/licenses/>.
  -->

<svg t="1709969678471" class="icon" viewBox="0 0 1024 1024" version="1.1" xmlns="http://www.w3.org/2000/svg" p-id="15443" width="16" height="16"><path d="M948.48 200.618667a41.216 41.216 0 1 1-0.042667-82.474667 41.216 41.216 0 0 1 0.042667 82.474667m-409.941333 705.322666a41.216 41.216 0 1 1-0.042667-82.474666 41.216 41.216 0 0 1 0.042667 82.474666M948.48 83.797333c-41.728 0-75.562667 33.834667-75.562667 75.562667 0 8.917333 2.261333 17.194667 5.077334 25.130667l-354.517334 607.616c-34.261333 7.168-60.501333 36.138667-60.501333 72.533333a75.562667 75.562667 0 0 0 151.082667 0c0-8.405333-2.261333-16.042667-4.736-23.594667l356.309333-609.621333c33.237333-7.978667 58.453333-36.437333 58.453333-72.106667a75.605333 75.605333 0 0 0-75.605333-75.52m-309.205333 116.821334a41.216 41.216 0 1 1-0.042667-82.474667 41.216 41.216 0 0 1 0.042667 82.474667M229.290667 905.941333a41.258667 41.258667 0 1 1 0-82.517333 41.258667 41.258667 0 0 1 0 82.517333m409.984-822.144a75.52 75.52 0 0 0-75.562667 75.562667c0 8.917333 2.261333 17.194667 5.077333 25.130667L214.272 792.106667c-34.304 7.168-60.544 36.138667-60.544 72.533333a75.562667 75.562667 0 0 0 151.125333 0c0-8.405333-2.261333-16.042667-4.736-23.594667l356.309334-609.621333c33.237333-7.978667 58.453333-36.437333 58.453333-72.106667a75.605333 75.605333 0 0 0-75.605333-75.52M74.624 326.954667a41.258667 41.258667 0 1 1 0 82.517333 41.258667 41.258667 0 0 1 0-82.517333m0-33.28c-41.130667 0-74.581333 33.450667-74.581333 74.581333s33.450667 74.581333 74.581333 74.581333 74.581333-33.450667 74.581333-74.581333-33.450667-74.581333-74.581333-74.581333z m0 297.344a41.258667 41.258667 0 1 1 0 82.517333 41.258667 41.258667 0 0 1 0-82.517333m0-33.28c-41.130667 0-74.581333 33.450667-74.581333 74.581333s33.450667 74.581333 74.581333 74.581333 74.581333-33.450667 74.581333-74.581333-33.450667-74.581333-74.581333-74.581333z" p-id="15444" fill="#AFB1B3"></path></svg>