<!--
  - Copyright 2024 XIN LIN HOU<hxl49508@gmail.com>
  - dependencies.svg is part of Cool Request
  -
  - License: GPL-3.0+
  -
  - Cool Request is free software: you can redistribute it and/or modify
  - it under the terms of the GNU General Public License as published by
  - the Free Software Foundation, either version 3 of the License, or
  - (at your option) any later version.
  -
  - Cool Request is distributed in the hope that it will be useful,
  - but WITHOUT ANY WARRANTY; without even the implied warranty of
  - MERCHANTABILITY or FITNESS FOR A PARTICULAR PURPOSE.  See the
  - GNU General Public License for more details.
  -
  - You should have received a copy of the GNU General Public License
  - along with Cool Request.  If not, see <http://www.gnu.org/licenses/>.
  -->

<svg xmlns="http://www.w3.org/2000/svg" width="16" height="16" data-name="Layer 1"><path fill="#6c707e" d="M12 10a2 2 0 0 0-.654.118L9.615 7.521A2.99 2.99 0 0 0 11 5a3 3 0 1 0-6 0 2.99 2.99 0 0 0 1.385 2.521l-1.731 2.597A1.993 1.993 0 0 0 4.001 10a2 2 0 1 0 2 2c0-.512-.198-.974-.514-1.328l1.837-2.756c.218.051.443.083.677.083s.459-.033.677-.083l1.837 2.756a1.987 1.987 0 0 0-.514 1.327 2 2 0 1 0 2-2Zm-8 3c-.551 0-1-.449-1-1s.449-1 1-1 1 .449 1 1-.449 1-1 1Zm2-8c0-1.103.897-2 2-2s2 .897 2 2-.897 2-2 2-2-.897-2-2Zm6 8c-.551 0-1-.449-1-1s.449-1 1-1 1 .449 1 1-.449 1-1 1Z"/></svg>