<!--
  - Copyright 2024 XIN LIN HOU<hxl49508@gmail.com>
  - export_dark.svg is part of Cool Request
  -
  - License: GPL-3.0+
  -
  - Cool Request is free software: you can redistribute it and/or modify
  - it under the terms of the GNU General Public License as published by
  - the Free Software Foundation, either version 3 of the License, or
  - (at your option) any later version.
  -
  - Cool Request is distributed in the hope that it will be useful,
  - but WITHOUT ANY WARRANTY; without even the implied warranty of
  - MERCHANTABILITY or FITNESS FOR A PARTICULAR PURPOSE.  See the
  - GNU General Public License for more details.
  -
  - You should have received a copy of the GNU General Public License
  - along with Cool Request.  If not, see <http://www.gnu.org/licenses/>.
  -->
<svg width="16" height="16" viewBox="0 0 16 16" fill="none" xmlns="http://www.w3.org/2000/svg">
<path fill-rule="evenodd" clip-rule="evenodd" d="M13.9621 2.30861C13.938 2.25051 13.9026 2.19602 13.8557 2.14857C13.8543 2.14715 13.8528 2.14574 13.8514 2.14433C13.7611 2.05509 13.637 2 13.5 2H13.4999H9.5C9.22386 2 9 2.22386 9 2.5C9 2.77614 9.22386 3 9.5 3H12.2929L7.14645 8.14645C6.95118 8.34171 6.95118 8.65829 7.14645 8.85355C7.34171 9.04882 7.65829 9.04882 7.85355 8.85355L13 3.70711V6.5C13 6.77614 13.2239 7 13.5 7C13.7761 7 14 6.77614 14 6.5V2.50035C14 2.49923 14 2.49812 14 2.497C13.9996 2.43287 13.987 2.3688 13.9621 2.30861Z" fill="#CED0D6"/>
<path d="M2.5 4.5V12C2.5 12.8284 3.17157 13.5 4 13.5H11.5" stroke="#CED0D6" stroke-linecap="round"/>
</svg>
