<!--
  - Copyright 2024 XIN LIN HOU<hxl49508@gmail.com>
  - library_dark.svg is part of Cool Request
  -
  - License: GPL-3.0+
  -
  - Cool Request is free software: you can redistribute it and/or modify
  - it under the terms of the GNU General Public License as published by
  - the Free Software Foundation, either version 3 of the License, or
  - (at your option) any later version.
  -
  - Cool Request is distributed in the hope that it will be useful,
  - but WITHOUT ANY WARRANTY; without even the implied warranty of
  - MERCHANTABILITY or FITNESS FOR A PARTICULAR PURPOSE.  See the
  - GNU General Public License for more details.
  -
  - You should have received a copy of the GNU General Public License
  - along with Cool Request.  If not, see <http://www.gnu.org/licenses/>.
  -->
<svg width="16" height="16" viewBox="0 0 16 16" fill="none" xmlns="http://www.w3.org/2000/svg">
<path fill-rule="evenodd" clip-rule="evenodd" d="M11 6H14C14.5523 6 15 6.44772 15 7V13C15 13.5523 14.5523 14 14 14H3C2.44772 14 2 13.5523 2 13V5C2 4.44772 2.44772 4 3 4H6V3C6 2.44772 6.44772 2 7 2H10C10.5523 2 11 2.44772 11 3V6ZM10 3H7V13H10V3ZM11 7V13H14V7H11ZM6 5V13H3L3 5H6Z" fill="#CED0D6"/>
<path d="M7 3H10V13H7V3Z" fill="#43454A"/>
<path d="M11 13V7H14V13H11Z" fill="#43454A"/>
<path d="M6 13V5H3V13H6Z" fill="#43454A"/>
</svg>
