<svg t="1705745818621" class="icon" viewBox="0 0 1024 1024" version="1.1" xmlns="http://www.w3.org/2000/svg" p-id="88498" width="21" height="21"><path d="M498.2784 512m-460.8 0a460.8 460.8 0 1 0 921.6 0 460.8 460.8 0 1 0-921.6 0Z" fill="#03a9f4" p-id="88499"></path><path d="M184.0128 444.928l91.4432 83.2 277.8112-116.1728-211.6096 173.7728v153.6a13.6704 13.6704 0 0 0 23.6032 9.4208l75.8784-80.128 126.1056 122.88a39.424 39.424 0 0 0 65.4848-17.664l139.4688-502.272a26.7264 26.7264 0 0 0-32.4608-33.0752L200.704 377.6a39.424 39.424 0 0 0-16.6912 67.328z" fill="#FBD180" p-id="88500"></path></svg>