<svg t="1705730535348" class="icon" viewBox="0 0 1024 1024" version="1.1" xmlns="http://www.w3.org/2000/svg" p-id="72411" width="21" height="21"><path d="M512 512m-512 0a512 512 0 1 0 1024 0 512 512 0 1 0-1024 0Z" fill="#gsgsgs" p-id="72412"></path><path d="M720.416 457.568l-29.216-4.096a18.464 18.464 0 0 1-14.304-11.296 178.88 178.88 0 0 0-21.888-38.048 18.4 18.4 0 0 1-2.656-18.016l11.072-27.328a18.08 18.08 0 0 0-7.744-22.528l-63.2-36.512a18.112 18.112 0 0 0-23.36 4.544l-18.112 23.136a18.56 18.56 0 0 1-17.088 6.784 171.616 171.616 0 0 0-43.712 0 18.56 18.56 0 0 1-17.12-6.784l-18.08-23.136a18.112 18.112 0 0 0-23.392-4.544l-63.168 36.48a18.176 18.176 0 0 0-7.776 22.496l11.072 27.328c2.464 6.08 1.28 12.8-2.656 18.048a176.864 176.864 0 0 0-21.888 38.048 18.24 18.24 0 0 1-14.304 11.264l-29.216 4.096a18.24 18.24 0 0 0-15.68 18.016v72.992c0 9.056 6.72 16.704 15.616 17.984l29.216 4.096a18.464 18.464 0 0 1 14.304 11.264c5.76 13.632 13.12 26.4 21.92 38.08 3.936 5.184 5.12 11.968 2.656 18.016l-11.072 27.296a18.08 18.08 0 0 0 7.744 22.528l63.168 36.48a18.112 18.112 0 0 0 23.392-4.544l18.08-23.136a18.56 18.56 0 0 1 17.12-6.816 171.584 171.584 0 0 0 43.712 0 18.56 18.56 0 0 1 17.12 6.816l18.08 23.136a18.112 18.112 0 0 0 23.36 4.544l63.2-36.48a18.176 18.176 0 0 0 7.744-22.528l-11.072-27.296a18.4 18.4 0 0 1 2.656-18.048c8.8-11.648 16.192-24.416 21.92-38.048a18.272 18.272 0 0 1 14.304-11.264l29.216-4.096c8.96-1.28 15.616-8.96 15.616-17.984v-72.96a17.92 17.92 0 0 0-15.584-17.984z m-208.352 125.376a70.944 70.944 0 1 1 0-141.888 70.944 70.944 0 0 1 0 141.888z" fill="#566EE2" p-id="72413"></path></svg>