<svg t="1705729268907" class="icon" viewBox="0 0 1080 1024" version="1.1" xmlns="http://www.w3.org/2000/svg" p-id="28690" width="21" height="21"><path d="M751.217778 580.152889c3.811556-31.857778 6.712889-63.772444 6.712889-96.711111 0-32.881778-2.844444-64.910222-6.712889-96.824889h163.498666a403.911111 403.911111 0 0 1 12.515556 96.768 398.791111 398.791111 0 0 1-12.515556 96.768h-163.498666zM665.6 849.123556c29.013333-53.703111 51.313778-111.729778 66.730667-172.202667h142.677333a388.835556 388.835556 0 0 1-209.351111 172.202667z m-12.060444-268.970667H427.349333a635.050667 635.050667 0 0 1-7.793777-96.711111c0-32.881778 2.901333-65.365333 7.793777-96.824889h226.190223c4.437333 31.459556 7.793778 63.829333 7.793777 96.768 0 32.995556-3.356444 64.853333-7.793777 96.768zM540.444444 868.352c-40.163556-58.026667-72.476444-122.311111-92.330666-191.374222h184.661333c-19.797333 69.12-52.167111 133.404444-92.330667 191.374222zM347.022222 290.190222H205.937778a383.032889 383.032889 0 0 1 208.952889-172.202666c-29.184 53.589333-50.858667 111.729778-67.754667 172.202666zM205.937778 676.920889H347.022222c16.896 60.472889 38.741333 118.499556 67.697778 172.202667a387.811556 387.811556 0 0 1-208.896-172.202667z m-39.708445-96.711111a405.617778 405.617778 0 0 1-12.686222-96.824889c0-33.28 4.892444-65.763556 12.515556-96.711111h163.498666c-3.811556 31.857778-6.712889 63.715556-6.712889 96.711111 0 32.824889 2.844444 64.739556 6.712889 96.768h-163.271111zM540.444444 98.076444a657.863111 657.863111 0 0 1 92.330667 191.886223H448.113778C467.797333 221.013333 500.280889 156.16 540.444444 98.133333z m334.563556 192.056889h-142.677333A759.068444 759.068444 0 0 0 665.6 117.987556a385.706667 385.706667 0 0 1 209.408 172.202666zM540.444444 0C273.066667 0 56.888889 217.656889 56.888889 483.555556a483.612444 483.612444 0 0 0 967.111111 0A483.612444 483.612444 0 0 0 540.444444 0z" fill="#B2B2B2" p-id="28691"></path><path d="M0 312.888889h1080.888889v398.222222h-1080.888889z" fill="#4C78FC" p-id="28692"></path><path d="M276.48 377.287111V625.777778h38.912V527.132444c0-15.018667 3.413333-26.965333 10.581333-36.522666a33.223111 33.223111 0 0 1 28.672-14.336c13.312 0 23.210667 4.096 30.037334 12.629333 5.802667 7.850667 8.874667 19.456 8.874666 34.474667V625.777778h38.912V516.551111c0-23.552-5.12-41.301333-15.018666-53.248-10.581333-12.629333-26.624-18.773333-48.128-18.773333-11.264 0-21.162667 2.048-29.696 6.485333-9.557333 4.778667-17.749333 11.946667-24.234667 21.845333v-95.573333H276.48z m252.302222 15.018667l-38.912 16.042666v40.96h-31.744v32.085334h31.744v99.669333c0 14.336 3.413333 24.917333 10.24 32.426667 7.168 8.192 18.432 12.288 33.792 12.288h29.696v-32.085334h-23.210666c-4.096 0-6.826667-1.024-8.874667-3.072-2.048-2.389333-2.730667-5.461333-2.730667-9.557333V481.393778h39.253334v-32.085334h-39.253334V392.305778z m123.676445 0l-38.912 16.042666v40.96h-31.744v32.085334h31.744v99.669333c0 14.336 3.413333 24.917333 10.24 32.426667 7.168 8.192 18.432 12.288 33.792 12.288h29.696v-32.085334h-23.210667c-4.096 0-6.826667-1.024-8.874667-3.072-2.048-2.389333-2.730667-5.461333-2.730666-9.557333V481.393778h39.253333v-32.085334h-39.253333V392.305778z m157.809777 52.224c-23.267556 0-40.96 7.850667-53.304888 23.552v-18.773334h-36.124445v244.053334h38.912v-91.818667c14.336 19.114667 32.028444 29.013333 52.508445 29.013333 25.258667 0 45.397333-9.216 59.733333-27.648 13.368889-17.066667 20.138667-38.570667 20.138667-64.512 0-27.306667-6.826667-49.152-20.48-66.218666-14.961778-18.432-35.441778-27.648-61.44-27.648z m-5.859555 31.402666c17.066667 0 29.696 6.144 37.888 18.432 6.542222 10.24 9.955556 24.917333 9.955555 44.032s-3.754667 33.792-10.922666 44.032c-8.192 10.922667-21.219556 16.725333-38.229334 16.725334a38.001778 38.001778 0 0 1-31.118222-15.36c-9.216-11.264-13.653333-26.282667-13.653333-44.714667v-2.730667c0-17.749333 3.413333-31.744 10.979555-42.325333 8.135111-12.288 19.797333-18.090667 35.100445-18.090667z" fill="#FFFFFF" p-id="28693"></path></svg>