<svg t="1706155339660" class="icon" viewBox="0 0 1024 1024" version="1.1" xmlns="http://www.w3.org/2000/svg" p-id="110593" width="18" height="18"><path d="M602.603 59.687c0-25.575-17.513-46.315-39.106-46.315h-97.781c-21.599 0-39.104 20.74-39.104 46.315l-39.113 83.372c0 25.571 17.51 46.312 39.113 46.312h175.991c21.603 0 39.111-20.741 39.111-46.312l-39.111-83.372zM901.225 193.767l-69.135-69.143c-15.274-15.271-42.318-12.985-60.405 5.099l-86.607 31.292c-18.088 18.087-20.369 45.135-5.091 60.41l124.45 124.45c15.271 15.267 42.317 12.993 60.406-5.098l31.292-86.607c18.087-18.085 20.365-45.132 5.09-60.403zM966.17 423.25l-83.368-39.111c-25.579 0-46.315 17.513-46.315 39.111v175.996c0 21.602 20.736 39.114 46.315 39.114l83.368-39.114c25.574 0 46.315-17.51 46.315-39.111v-97.77c0.001-21.602-20.741-39.115-46.315-39.115zM896.135 768.336l-31.292-86.611c-18.088-18.092-45.136-20.365-60.406-5.099l-124.45 124.453c-15.277 15.274-12.997 42.317 5.091 60.41l86.607 31.292c18.087 18.083 45.131 20.369 60.405 5.095l69.135-69.144c15.275-15.274 12.997-42.313-5.09-60.396zM602.603 833.134H426.611c-21.604 0-39.113 20.74-39.113 46.313l39.113 83.368c0 25.578 17.505 46.314 39.104 46.314h97.781c21.595 0 39.106-20.736 39.106-46.314l39.111-83.368c0.001-25.573-17.509-46.313-39.11-46.313zM349.223 801.079L224.777 676.626c-15.276-15.268-42.319-12.993-60.407 5.099l-31.294 86.611c-18.088 18.083-20.365 45.122-5.095 60.397l69.141 69.143c15.272 15.274 42.313 12.988 60.403-5.095l86.607-31.292c18.088-18.093 20.368-45.135 5.091-60.41zM146.408 384.139L63.042 423.25c-25.583 0-46.315 17.513-46.315 39.115v97.77c0 21.603 20.732 39.111 46.315 39.111l83.366 39.114c25.579 0 46.315-17.514 46.315-39.114V423.25c0.001-21.598-20.736-39.111-46.315-39.111zM344.133 161.015l-86.607-31.292c-18.089-18.083-45.131-20.369-60.403-5.099l-69.141 69.143c-15.271 15.271-12.993 42.318 5.095 60.402l31.294 86.607c18.087 18.091 45.131 20.365 60.407 5.098l124.446-124.45c15.276-15.275 12.996-42.322-5.091-60.409z" fill="#C45FA0" p-id="110594"></path><path d="M790.521 523.425c-1.304 151.426-124.434 274.556-275.858 275.859-73.322 0.631-142.885-29.461-195.057-80.795-52.501-51.653-80.167-122.136-80.795-195.061-0.565-65.825-102.694-65.881-102.125 0 1.785 207.093 170.883 376.197 377.977 377.98 207.115 1.783 376.223-173.582 377.984-377.985 0.567-65.879-101.558-65.823-102.126 0.002z" fill="#4A5699" p-id="110595"></path><path d="M238.812 505.593c1.306-151.419 124.43-274.551 275.852-275.855 73.323-0.632 142.889 29.461 195.063 80.795 52.499 51.655 80.165 122.138 80.795 195.06 0.567 65.823 102.692 65.879 102.126 0-1.783-207.092-170.893-376.202-377.984-377.981-207.109-1.781-376.216 173.578-377.977 377.981-0.57 65.88 101.558 65.823 102.125 0z" fill="#E5594F" p-id="110596"></path><path d="M590.092 516.452c-0.921 42.171-34.168 75.409-76.339 76.331-42.184 0.921-75.438-35.545-76.331-76.331-0.922-42.191 35.548-75.443 76.331-76.335 42.191-0.924 75.445 35.547 76.339 76.335 1.439 65.755 103.565 65.895 102.126 0-2.158-98.635-79.829-176.303-178.466-178.461-98.62-2.156-176.369 83.087-178.457 178.461-2.155 98.619 83.086 176.37 178.457 178.457 98.619 2.158 176.38-83.081 178.466-178.457 1.439-65.895-100.687-65.755-102.126 0z" fill="#F39A2B" p-id="110597"></path></svg>