<svg t="1706174853322" class="icon" viewBox="0 0 1024 1024" version="1.1" xmlns="http://www.w3.org/2000/svg" p-id="19837" width="18" height="18"><path d="M426.666667 170.666667H170.666667c-47.36 0-85.333333 37.973333-85.333334 85.333333v512c0 46.805333 38.528 85.333333 85.333334 85.333333h682.666666c46.805333 0 85.333333-38.528 85.333334-85.333333V341.333333a85.333333 85.333333 0 0 0-85.333334-85.333333h-341.333333l-85.333333-85.333333z" fill="#039BE5" p-id="19838"></path><path d="M854.869333 714.496c2.133333-17.408 3.712-34.858667 3.712-52.778667s-1.578667-35.413333-3.712-52.821333h89.216c4.224 16.896 6.826667 34.56 6.826667 52.821333a217.6 217.6 0 0 1-6.826667 52.778667m-135.936 146.773333c15.829333-29.312 27.989333-61.013333 36.437334-93.994666h77.866666a211.968 211.968 0 0 1-114.304 93.994666m-6.613333-146.773333h-123.52c-2.645333-17.408-4.224-34.858667-4.224-52.778667s1.578667-35.626667 4.266667-52.821333h123.477333c2.389333 17.194667 4.266667 34.858667 4.266667 52.821333s-1.877333 35.370667-4.266667 52.778667m-61.738667 157.312a357.973333 357.973333 0 0 1-50.432-104.533333h100.821334a357.973333 357.973333 0 0 1-50.389334 104.533333m-105.6-315.690667h-77.056a209.152 209.152 0 0 1 114.005334-93.952c-15.786667 29.269333-27.733333 60.970667-36.949334 93.952m-77.056 211.2h77.056c9.258667 32.981333 21.12 64.64 36.949334 93.952a211.370667 211.370667 0 0 1-114.005334-93.994666m-21.674666-52.778667a217.557333 217.557333 0 0 1-6.826667-52.778667 217.6 217.6 0 0 1 6.826667-52.821333h89.216c-2.090667 17.450667-3.669333 34.858667-3.669334 52.821333s1.578667 35.370667 3.669334 52.778667m115.114666-263.168a359.466667 359.466667 0 0 1 50.389334 104.789333h-100.821334a359.509333 359.509333 0 0 1 50.432-104.789333m182.613334 104.789333h-77.824a413.098667 413.098667 0 0 0-36.437334-93.952 210.773333 210.773333 0 0 1 114.304 93.952m-182.656-158.378666a264.234667 264.234667 0 0 0-263.978666 263.978666 263.936 263.936 0 0 0 263.978666 263.936 263.936 263.936 0 0 0 263.936-263.936 263.936 263.936 0 0 0-263.936-263.978666z" fill="#B3E5FC" p-id="19839"></path></svg>