<svg width="25.144" height="6.016" viewBox="0 0 25.144 6.016" xmlns="http://www.w3.org/2000/svg"><g id="svgGroup" stroke-linecap="round" fill-rule="evenodd" font-size="9pt" stroke="#427ce8" stroke-width="0.25mm" fill="#427ce8" style="stroke:#427ce8;stroke-width:0.25mm;fill:#427ce8"><path d="M 0.76 5.92 L 0 5.92 L 0 0.32 L 0.76 0.32 L 0.76 2.712 L 3.52 2.712 L 3.52 0.32 L 4.28 0.32 L 4.28 5.92 L 3.52 5.92 L 3.52 3.368 L 0.76 3.368 L 0.76 5.92 Z M 5.6 4.464 L 5.6 1.76 L 6.32 1.76 L 6.32 4.368 A 1.838 1.838 0 0 0 6.34 4.651 Q 6.363 4.798 6.413 4.918 A 0.811 0.811 0 0 0 6.528 5.116 A 0.672 0.672 0 0 0 6.937 5.358 A 1.025 1.025 0 0 0 7.136 5.376 Q 7.464 5.376 7.772 5.244 Q 8.08 5.112 8.32 4.888 L 8.32 1.76 L 9.04 1.76 L 9.04 4.84 A 1.248 1.248 0 0 0 9.048 4.988 Q 9.067 5.147 9.131 5.234 A 0.262 0.262 0 0 0 9.188 5.292 Q 9.336 5.4 9.512 5.4 L 9.36 5.96 Q 8.616 5.96 8.44 5.368 Q 8.16 5.656 7.792 5.836 Q 7.424 6.016 7 6.016 Q 6.64 6.016 6.32 5.864 A 1.155 1.155 0 0 1 5.879 5.493 A 1.461 1.461 0 0 1 5.8 5.372 Q 5.6 5.032 5.6 4.464 Z M 10.632 4.488 L 10.632 2.536 L 9.912 2.536 L 9.912 1.912 L 10.648 1.912 L 10.8 0.6 L 11.352 0.6 L 11.352 1.912 L 12.504 1.912 L 12.504 2.536 L 11.352 2.536 L 11.352 4.544 Q 11.352 4.955 11.506 5.146 A 0.444 0.444 0 0 0 11.548 5.192 Q 11.744 5.376 12.016 5.376 Q 12.216 5.376 12.396 5.312 A 2.059 2.059 0 0 0 12.65 5.203 A 1.821 1.821 0 0 0 12.728 5.16 L 12.928 5.736 Q 12.819 5.801 12.659 5.865 A 3.469 3.469 0 0 1 12.496 5.924 Q 12.224 6.016 11.928 6.016 A 1.466 1.466 0 0 1 11.513 5.96 A 1.115 1.115 0 0 1 10.98 5.62 Q 10.689 5.288 10.641 4.718 A 2.782 2.782 0 0 1 10.632 4.488 Z M 23.016 4.616 L 23.016 0 L 23.736 0 L 23.736 4.544 A 1.652 1.652 0 0 0 23.751 4.775 Q 23.788 5.036 23.916 5.184 A 0.589 0.589 0 0 0 24.283 5.382 A 0.858 0.858 0 0 0 24.416 5.392 Q 24.568 5.392 24.716 5.356 Q 24.843 5.325 24.937 5.286 A 0.955 0.955 0 0 0 24.968 5.272 L 25.144 5.856 Q 25.032 5.906 24.879 5.946 A 2.798 2.798 0 0 1 24.788 5.968 A 1.905 1.905 0 0 1 24.536 6.007 A 2.441 2.441 0 0 1 24.32 6.016 A 1.669 1.669 0 0 1 23.929 5.972 A 1.404 1.404 0 0 1 23.656 5.876 A 1.015 1.015 0 0 1 23.23 5.495 A 1.269 1.269 0 0 1 23.188 5.424 A 1.26 1.26 0 0 1 23.07 5.116 Q 23.035 4.971 23.022 4.801 A 2.568 2.568 0 0 1 23.016 4.616 Z M 14.549 5.909 A 2.177 2.177 0 0 0 15.24 6.016 Q 15.832 6.016 16.3 5.744 Q 16.768 5.472 17.04 4.98 Q 17.312 4.488 17.312 3.824 A 2.763 2.763 0 0 0 17.273 3.351 A 2.064 2.064 0 0 0 17.036 2.676 Q 16.76 2.192 16.292 1.928 Q 15.824 1.664 15.24 1.664 Q 14.656 1.664 14.184 1.928 Q 13.712 2.192 13.44 2.68 A 2.082 2.082 0 0 0 13.22 3.287 A 2.8 2.8 0 0 0 13.168 3.84 A 2.786 2.786 0 0 0 13.189 4.188 A 2.196 2.196 0 0 0 13.436 4.972 Q 13.704 5.464 14.176 5.74 A 1.965 1.965 0 0 0 14.549 5.909 Z M 19.333 5.909 A 2.177 2.177 0 0 0 20.024 6.016 Q 20.616 6.016 21.084 5.744 Q 21.552 5.472 21.824 4.98 Q 22.096 4.488 22.096 3.824 A 2.763 2.763 0 0 0 22.057 3.351 A 2.064 2.064 0 0 0 21.82 2.676 Q 21.544 2.192 21.076 1.928 Q 20.608 1.664 20.024 1.664 Q 19.44 1.664 18.968 1.928 Q 18.496 2.192 18.224 2.68 A 2.082 2.082 0 0 0 18.004 3.287 A 2.8 2.8 0 0 0 17.952 3.84 A 2.786 2.786 0 0 0 17.973 4.188 A 2.196 2.196 0 0 0 18.22 4.972 Q 18.488 5.464 18.96 5.74 A 1.965 1.965 0 0 0 19.333 5.909 Z M 15.24 5.376 A 1.499 1.499 0 0 0 15.658 5.321 A 1.12 1.12 0 0 0 16.224 4.948 Q 16.576 4.52 16.576 3.84 A 1.71 1.71 0 0 0 16.478 3.257 A 1.601 1.601 0 0 0 16.4 3.076 A 1.536 1.536 0 0 0 16.066 2.631 A 1.454 1.454 0 0 0 15.924 2.516 Q 15.624 2.304 15.24 2.304 A 1.54 1.54 0 0 0 14.822 2.358 A 1.123 1.123 0 0 0 14.256 2.72 A 1.43 1.43 0 0 0 13.962 3.31 Q 13.904 3.545 13.904 3.824 Q 13.904 4.24 14.08 4.596 A 1.555 1.555 0 0 0 14.362 4.999 A 1.41 1.41 0 0 0 14.556 5.164 Q 14.856 5.376 15.24 5.376 Z M 20.024 5.376 A 1.499 1.499 0 0 0 20.442 5.321 A 1.12 1.12 0 0 0 21.008 4.948 Q 21.36 4.52 21.36 3.84 A 1.71 1.71 0 0 0 21.262 3.257 A 1.601 1.601 0 0 0 21.184 3.076 A 1.536 1.536 0 0 0 20.85 2.631 A 1.454 1.454 0 0 0 20.708 2.516 Q 20.408 2.304 20.024 2.304 A 1.54 1.54 0 0 0 19.606 2.358 A 1.123 1.123 0 0 0 19.04 2.72 A 1.43 1.43 0 0 0 18.746 3.31 Q 18.688 3.545 18.688 3.824 Q 18.688 4.24 18.864 4.596 A 1.555 1.555 0 0 0 19.146 4.999 A 1.41 1.41 0 0 0 19.34 5.164 Q 19.64 5.376 20.024 5.376 Z" vector-effect="non-scaling-stroke"/></g></svg>