<svg t="1711333133649" class="icon" viewBox="0 0 1212 1024" version="1.1" xmlns="http://www.w3.org/2000/svg" p-id="4421" width="12" height="12"><path d="M1046.13553227 390.22780871l74.16854528 21.55058062-69.16289308 20.30556728 47.32127004 19.81510884-49.81938062 9.31603798z" fill="#1A1A1A" p-id="4422"></path><path d="M350.45357415 252.0906604c-9.96684003 126.62616747 141.73205504 329.6454656 291.64831744 345.76595741 58.57893603 6.29917241 144.55489309-49.04461653 140.07877518-107.79063069-12.48381497-163.8485504-265.39660061-172.08261291-431.72709262-237.97532672z" p-id="4423"></path><path d="M84.09356932 720.72484067c164.14498247 182.96030777 459.76278926 265.41950749 674.75927382 176.86729045 179.36405277-73.87480861 295.66361941-312.19642141 295.72155846-501.21067179 0.0390747-129.44631011-129.6026112-276.67312981-321.52054329-215.98009798-86.20771214 27.26362681-151.98185245 113.86343765-207.53988039 192.52561806C401.37918311 538.15124195 291.30063834 649.1500726 84.09356932 720.72484067z" p-id="4424"></path><path d="M207.57082528 351.02741731c10.44382606 126.58843989 192.70078123 302.6877019 343.26380431 294.58838186 58.83224974-3.1650816 134.83462997-71.56398877 121.00609365-128.83458389-38.56575715-159.73488754-289.53287453-127.35242467-464.26989796-165.75379797z" p-id="4425"></path><path d="M623.80262703 251.35631928c52.17870734 4.66206151 144.3177472 21.18408306 217.02569301 25.68849636 59.67573333 3.69865842 130.18604203 2.09927509 179.3653999 1.0685019 35.61760995 61.05144547 38.50108131 126.14244466 28.44935395 183.10043875-104.86943175 17.56222805-182.95222272 4.61355463-268.51587072-22.73091811-77.84025543-24.87465757-155.04722603-62.35574386-211.0027412-124.81928192 24.95145984-35.50038471 33.44287971-43.16853248 54.67816506-62.30723698z" fill="#D40000" p-id="4426"></path><path d="M1011.21318874 400.49377507c-10.31582151 27.06016711-46.34169799 37.33556565-80.46637056 22.95054677-34.12467257-14.38501888-53.42641493-47.98285141-43.11059343-75.04301852 10.31447438-27.06016711 46.34035086-37.33691278 80.46637056-22.95054677 34.12467257 14.38501888 53.42506781 47.98150429 43.11059343 75.04301852z" fill="#FFFFFF" p-id="4427"></path><path d="M1007.67621991 397.22629005c-7.78402589 20.42279253-33.46039581 28.81585038-57.34739626 18.74660694-23.8870016-10.06924459-36.94077269-34.78894819-29.15539968-55.21174187 7.78402589-20.42144541 33.46039581-28.81450325 57.34739626-18.7452598 23.88834873 10.06924459 36.94211982 34.78760107 29.15674795 55.21039473z" fill="#1A1A1A" p-id="4428"></path><path d="M998.04892917 371.01364792c-2.75277255 7.21945827-11.50424291 10.32390542-19.54832042 6.93380551-8.04407751-3.39009991-12.33155641-11.99200711-9.58013099-19.21416078 2.75277255-7.21945827 11.50424291-10.32390542 19.5483193-6.93380551 8.04407751 3.39009991 12.33290354 11.99200711 9.58013211 19.21416078z" fill="#FFFFFF" p-id="4429"></path><path d="M1007.46332804 361.77980188c-13.1197952-8.1815131-23.99883719-19.4081883-37.05799794-27.69075769-12.57543907-8.48468195-25.54701824-16.66754333-39.64773262-22.36172516-6.18194717-2.13700267-12.36658973-4.2618789-18.51889322-6.48107463-4.2066341 1.00247779 0.7990181-2.75816221 1.67483846-4.15004217l12.77350912-14.25566834c5.52440832 0.72760547 10.40205597 3.77141931 15.78363791 5.0635924 14.55883605 5.96366563 27.71635883 14.77172793 40.87522987 23.2779685 12.92711481 8.7245221 24.98918741 18.72370119 38.02140102 27.26093254 3.85900089 0.72221582 3.65149867 3.40626887 0.67909746 5.0339476l-14.58309006 14.30282695z" fill="#1A1A1A" p-id="4430"></path><path d="M634.61699317 321.29936611c-25.15222528-0.87447325-54.42889273 2.25288078-73.70368682-21.0062245-16.97205931-18.59434837-30.78307954-41.74296519-39.68950272-66.97199388-1.54413966-18.32621283-1.56165575-40.71353913-18.29791744-49.42054514-19.31791133-12.26014379-42.14180067-10.49637547-63.26390329-13.88916964-39.8606245-2.65171627-77.83756117 13.96732018-114.99122574 28.66898262-17.63903033 6.92302621-39.32300515 5.65106461-52.25416249-12.01626112-10.07463424-11.55544405-16.19594695-26.51985351-22.55575268-40.84558621-9.31334371-9.27426787-9.87252167-23.68084651 2.70022201-27.52502556l23.22003058-15.7445632c11.89229909 25.73700437 20.93885326 58.80799687 46.01697053 70.27585934 25.74374115 6.51745394 49.62131058-10.98144541 73.89232582-18.06885661 34.40493454-13.09015154 71.1718912-15.06007495 106.70596096-8.11953265 20.46052125 2.15047737 45.22199495 11.02186723 51.40798464 37.39889436 1.80823267 22.87239623 5.93132771 45.15192946 19.60895261 62.32744847 12.94058837 23.24293632 31.91760441 45.39715925 56.82998955 46.3511313 8.24618894 3.23514709 35.23090091-3.37123669 32.25984797 4.5569627l-27.88748175 24.02847972z" fill="#D40000" p-id="4431"></path><path d="M617.7662005 309.23459811c-18.23728299-11.89364622-40.54780701-22.38597917-48.30488349-44.27880334-5.13769927-14.65854521-10.41553067-29.48147427-12.98640099-44.81777096-2.25422791-20.84318663 0.06198158-41.84671687-0.97687779-62.73571498 3.36045739-13.33133995-5.28456818-25.59552512-18.63477135-28.05590812-17.50024647-5.10131883-36.00970752-4.43030528-53.9519067-6.9014676-16.49237902-0.89872725-36.17544078 2.68944384-49.25616014-9.71487459-9.92237568-11.83166464-14.23141433-27.14505443-19.14813668-41.48156644-1.12778809-7.48759381 8.81614621-7.78672014 13.1373113-12.21433116l23.66198214-15.0129152c1.71121891 13.94845696 7.82849024 26.96719587 13.29630663 39.75417856 7.54553287 13.43374336 24.07294407 14.07511325 37.70745288 13.73825934 21.37945885 1.36089031 43.09442446 1.78128441 64.03058347 6.53092864 13.19794574 3.08288967 28.75117454 12.42722304 27.36333595 27.79046685 0.88929507 31.83136882-4.38314667 64.841728 6.5619183 95.53587768 4.52193053 13.73017543 8.96031971 28.55175737 21.1032394 37.6670299 9.10584149 8.44291186 20.55753501 13.98887879 30.70492785 20.72461426-8.31356018 7.27335481-18.92446549 12.75195051-28.11654144 19.37180786l-6.19137934 4.1001893z" fill="#D40000" p-id="4432"></path></svg>