<!--
  - Copyright 2024 XIN LIN HOU<hxl49508@gmail.com>
  - spring.svg is part of Cool Request
  -
  - License: GPL-3.0+
  -
  - Cool Request is free software: you can redistribute it and/or modify
  - it under the terms of the GNU General Public License as published by
  - the Free Software Foundation, either version 3 of the License, or
  - (at your option) any later version.
  -
  - Cool Request is distributed in the hope that it will be useful,
  - but WITHOUT ANY WARRANTY; without even the implied warranty of
  - MERCHANTABILITY or FITNESS FOR A PARTICULAR PURPOSE.  See the
  - GNU General Public License for more details.
  -
  - You should have received a copy of the GNU General Public License
  - along with Cool Request.  If not, see <http://www.gnu.org/licenses/>.
  -->

<svg t="1711003261577" class="icon" viewBox="0 0 1024 1024" version="1.1" xmlns="http://www.w3.org/2000/svg" p-id="19350" width="12" height="12"><path d="M155.71372 143.84389A509.432562 509.432562 0 0 1 519.310332 0.076389a509.494001 509.494001 0 0 1 358.353808 156.362517 446.170766 446.170766 0 0 0 54.844639-95.947399c63.999066 196.195536 103.238173 360.93425 88.308471 488.502308A510.886621 510.886621 0 0 1 710.652178 983.654989a509.432562 509.432562 0 0 1-527.39326-79.911793l-4.259778-3.645387-2.129889-2.559963a39.239107 39.239107 0 0 1-6.184869-4.05498l-6.410147-6.635424a212.190182 212.190182 0 0 1-18.984683-17.510144l-2.129888-2.580442c-195.642584-203.158634-190.010666-526.69695 12.574536-722.933445z m75.959211 687.01205a43.314568 43.314568 0 0 0-61.152387 0.511992 43.498885 43.498885 0 0 0 0.143358 61.234306l8.089482 7.290774a42.618258 42.618258 0 0 0 57.404602-7.700368 44.50239 44.50239 0 0 0-6.18487-61.336704h1.699815zM927.163577 113.0629c-52.694271 110.918061-183.477641 195.314908-296.115997 221.815641-106.678762 25.210512-199.267491 4.280258-297.180941 42.741136-223.372099 85.482272-219.112321 351.534068-97.073782 411.785348l7.47509 4.054981s88.308471-17.510144 175.572477-40.590767l7.475091-2.150369c34.979329-9.400183 69.323788-19.660513 97.27858-29.900364 145.487796-53.861614 305.4957-186.97967 358.18997-341.908608-27.299441 160.478937-165.332626 315.612672-303.365811 386.34956-73.808842 38.256081-131.418241 46.796117-251.961761 89.537252-14.704425 5.324722-26.234497 10.465127-26.234497 10.465128h10.23985c26.889847-3.42011 50.789658-4.915128 50.789659-4.915129 171.722293-8.540035 441.603793 48.516412 567.041961-119.232819 127.998131-170.964544 56.749251-448.751208-2.129889-626.125898V113.0629z" fill="#82B85E" p-id="19351"></path><path d="M231.672931 830.87642a44.50239 44.50239 0 0 1 6.18487 61.316224 43.314568 43.314568 0 0 1-60.537996 5.611438 43.498885 43.498885 0 0 1-6.655903-60.537996 42.659217 42.659217 0 0 1 61.234306-6.410146h-0.225277z m695.490646-717.81352c58.87914 178.439635 130.558094 454.956558 2.129889 626.125898-125.438169 167.749231-395.954539 110.692784-566.632367 119.232819 0 0-23.899811 1.720295-50.789659 4.915129h-10.23985s11.530072-5.119925 26.254977-10.444648c120.113446-40.836524 177.722845-49.376559 251.531687-87.427843 138.033185-70.716408 276.066369-225.870622 303.365811-386.34956-52.694271 154.068791-213.337045 287.207327-358.18997 341.908608a2421.396968 2421.396968 0 0 1-280.326148 72.66198l-7.270293-4.054981c-122.243335-60.27176-126.503113-326.323556 96.868985-411.805828 97.91345-37.805528 190.727455-16.875274 297.180941-42.720656 112.638355-26.72601 243.626523-111.122858 296.136477-222.040918z" fill="#FFFFFF" p-id="19352"></path></svg>