<svg t="1709872555473" class="icon" viewBox="0 0 1024 1024" version="1.1" xmlns="http://www.w3.org/2000/svg" p-id="4284" width="16" height="16"><path d="M287.513782 805.551934a18.728506 18.728506 0 0 0-21.59407-15.607089 18.933189 18.933189 0 0 0-12.127475 7.777959L181.794947 897.60817a18.933189 18.933189 0 0 0-3.530784 13.969623 19.444897 19.444897 0 0 0 7.522105 12.332158 19.086701 19.086701 0 0 0 20.98002 0.61405 18.626164 18.626164 0 0 0 5.270591-5.065908l71.946119-99.731853a18.728506 18.728506 0 0 0 3.530784-14.174306zM427.721723 869.975948a18.677335 18.677335 0 0 0-25.738903 6.856884l-67.698944 115.594796a18.779677 18.779677 0 0 0 32.339934 18.933189l67.647773-115.594795a18.779677 18.779677 0 0 0-6.54986-25.841245zM362.530147 817.781751a18.728506 18.728506 0 0 0-25.892415 5.679956l-109.044935 171.166264a18.779677 18.779677 0 0 0 19.751921 28.860321 18.677335 18.677335 0 0 0 11.76928-8.699033l109.147277-171.115093a18.830848 18.830848 0 0 0-5.731128-25.943586z" fill="#FA7600" p-id="4285"></path><path d="M872.191131 838.966454l1.94449-2.149173 9.568936-10.592351 2.098002-2.456198a306.001273 306.001273 0 0 0 10.387668-12.280988l2.046832-2.558539c3.019076-3.735467 5.935811-7.522105 8.852545-11.257572l1.637465-2.149172c3.172588-4.298346 6.345177-8.647862 9.415424-13.04855l2.046831-2.967905c2.865564-4.093663 5.628786-8.187325 8.289666-12.383329l1.023416-1.535123c2.916735-4.5542 5.731128-9.108399 8.545521-13.816111l1.944489-3.22376a358.19547 358.19547 0 0 0 7.880301-14.174306l0.255854-0.307025c2.558539-4.810053 5.117078-9.722448 7.522104-14.634843 0.562879-1.125757 1.176928-2.302685 1.739807-3.581955l7.061568-14.788356 0.511708-1.176928c2.098002-4.707712 4.093663-9.415424 6.089323-14.174306l1.432782-3.581955c2.046831-5.014737 3.991321-10.131815 5.884639-15.248893l0.767562-2.302685c1.688636-4.60537 3.27493-9.210741 4.758883-13.918453l1.125757-3.530784c1.637465-5.21942 3.172588-10.592352 4.656541-15.7606l0.818733-3.070247c1.33044-4.60537 2.558539-9.313082 3.581954-14.123136l0.767562-3.172588c1.228099-5.321761 2.405027-10.592352 3.530784-16.221138l0.66522-3.530784a480.493638 480.493638 0 0 0 2.558539-14.634844c0-0.921074 0.358195-1.790977 0.511708-2.66088 0.818733-5.577615 1.535123-11.10406 2.251514-16.681675l0.460537-3.94015c0.562879-5.168249 1.074586-10.592352 1.535124-15.70943v-1.739807c0.460537-5.628786 0.767562-11.359913 1.023416-17.091041v-4.144833a496.868288 496.868288 0 0 0-144.813312-368.63431 495.384336 495.384336 0 0 0-701.193219 0 496.868288 496.868288 0 0 0-144.966824 366.382796c0 1.535123 0 3.121418 0.204683 4.707712 0 3.581955 0.307025 7.061568 0.511708 10.643522 0 1.739807 0.204683 3.530784 0.358196 5.270591 0.255854 3.530784 0.511708 7.061568 0.869903 10.592351l0.409366 4.605371a495.742531 495.742531 0 0 0 153.921711 311.118351l25.380708-44.006872a446.209215 446.209215 0 0 1-130.485493-275.196463l487.043498-242.395992a62.326012 62.326012 0 0 1 90.060575 51.324294l42.369407 560.166545a448.204875 448.204875 0 0 1-228.938076 32.339934l-26.506465 46.053703c87.246182 14.276648 176.79505 5.065907 259.333521-26.762318l1.074586-0.460537a459.513618 459.513618 0 0 0 15.095381-6.140494l3.019076-1.33044c4.400687-1.94449 8.801374-3.888979 13.150891-5.986982l2.558539-1.176928c4.861224-2.353856 9.722448-4.758883 14.481331-7.266251l3.172588-1.637465 12.997379-7.112738 1.739806-0.921075c4.707712-2.712051 9.364253-5.526444 13.969624-8.340837l3.172588-2.046831a449.791169 449.791169 0 0 0 13.304403-8.545521l0.511708-0.358195a427.327196 427.327196 0 0 0 16.37465-11.666938c4.400687-3.223759 8.750204-6.447518 13.04855-9.82479l0.716391-0.562879a435.46335 435.46335 0 0 0 11.973962-9.875961l2.865564-2.405027c4.093663-3.581955 8.187325-7.112739 12.076305-10.643522l1.535123-1.432782c3.581955-3.27493 7.112739-6.652202 10.643523-10.029473l2.558539-2.507368c3.581955-3.94015 7.317422-7.777959 11.206401-11.615768z" fill="#FA7600" p-id="4286"></path><path d="M462.87605 679.108933c44.672092 0 80.849835-36.228913 80.849835-81.003347a80.952176 80.952176 0 1 0-80.849835 81.003347z" fill="#FA7600" p-id="4287"></path></svg>