<svg t="1704548668397" class="icon" viewBox="0 0 1024 1024" version="1.1" xmlns="http://www.w3.org/2000/svg" p-id="5130" width="16" height="16"><path d="M438.3 917.2l-98.6-82.8c-11.7-9.8-13.3-27.3-3.4-39.1 11.4-13.5 31.5-15.3 45.1-3.9L431 833l58.1-69.2h381.4c16.5 0 29.9-13.4 29.9-29.9V196.4c0-16.5-13.4-29.9-29.9-29.9H153.6c-16.5 0-29.9 13.4-29.9 29.9V734c0 16.5 13.4 29.9 29.9 29.9h61.3c17.7 0 32 14.3 32 32 0 15.3-12.4 27.7-27.7 27.7h-65.6c-49.5 0-89.6-40.1-89.6-89.6V196.4c0-49.5 40.1-89.6 89.6-89.6h716.8c49.5 0 89.6 40.1 89.6 89.6V734c0 49.5-40.1 89.6-89.6 89.6H516.9l-78.6 93.6z" fill="#6C707E" p-id="5131"></path><path d="M293.7 462m-48 0a48 48 0 1 0 96 0 48 48 0 1 0-96 0Z" fill="#6C707E" p-id="5132"></path><path d="M511.7 462m-48 0a48 48 0 1 0 96 0 48 48 0 1 0-96 0Z" fill="#6C707E" p-id="5133"></path><path d="M730.3 462m-48 0a48 48 0 1 0 96 0 48 48 0 1 0-96 0Z" fill="#6C707E" p-id="5134"></path></svg>