<svg t="1708682719399" class="icon" viewBox="0 0 1024 1024" version="1.1" xmlns="http://www.w3.org/2000/svg" p-id="54795" width="16" height="16"><path d="M163.2 583.68h736a26.24 26.24 0 0 0 24.96-39.68l-86.72-185.92a75.84 75.84 0 0 0-64-40.32h-151.36V44.48A44.48 44.48 0 0 0 577.92 0h-88.64a44.48 44.48 0 0 0-44.16 44.48v272.64H288a76.16 76.16 0 0 0-64 40.32L137.6 544a26.24 26.24 0 0 0 25.6 40.32" fill="#2E6CF6" p-id="54796"></path><path d="M878.08 649.6H200c3.84 68.8 2.24 151.68-54.4 200.64-79.36 68.8-52.48 144 3.84 173.76h114.88a570.56 570.56 0 0 0 92.16-194.56c-8.64 56.96-28.48 175.04-42.56 194.56h83.2a576 576 0 0 0 92.16-194.56C480 886.4 460.8 1004.48 448 1024h104.96a578.24 578.24 0 0 0 91.84-194.56c-8.64 56.96-28.16 175.04-42.56 194.56h105.28A570.56 570.56 0 0 0 800 829.44c-8.64 56.96-28.16 175.04-42.56 194.56h105.92a96 96 0 0 0 59.2-106.88 2426.24 2426.24 0 0 0-42.88-267.52" fill="#ACC5FC" p-id="54797"></path></svg>