<!--
  - Copyright 2024 XIN LIN HOU<hxl49508@gmail.com>
  - copy.svg is part of Cool Request
  -
  - License: GPL-3.0+
  -
  - Cool Request is free software: you can redistribute it and/or modify
  - it under the terms of the GNU General Public License as published by
  - the Free Software Foundation, either version 3 of the License, or
  - (at your option) any later version.
  -
  - Cool Request is distributed in the hope that it will be useful,
  - but WITHOUT ANY WARRANTY; without even the implied warranty of
  - MERCHANTABILITY or FITNESS FOR A PARTICULAR PURPOSE.  See the
  - GNU General Public License for more details.
  -
  - You should have received a copy of the GNU General Public License
  - along with Cool Request.  If not, see <http://www.gnu.org/licenses/>.
  -->

<svg t="1709544614753" class="icon" viewBox="0 0 1024 1024" version="1.1" xmlns="http://www.w3.org/2000/svg" p-id="135223" width="16" height="16"><path d="M576 128a96 96 0 0 1 96 96v128h-224a96 96 0 0 0-96 90.368V672H224a96 96 0 0 1-96-96V224a96 96 0 0 1 96-96z" fill="#3671FD" opacity=".2" p-id="135224"></path><path d="M576 96a128 128 0 0 1 128 128v128h-64V224a64 64 0 0 0-59.2-64H224a64 64 0 0 0-64 64v352a64 64 0 0 0 64 64h128v64H224a128 128 0 0 1-128-128V224a128 128 0 0 1 128-128z" fill="#3671FD" p-id="135225"></path><path d="M800 320H448a128 128 0 0 0-128 128v352a128 128 0 0 0 128 128h352a128 128 0 0 0 128-128V448a128 128 0 0 0-128-128z m-352 64h352a64 64 0 0 1 64 64v352a64 64 0 0 1-64 64H448a64 64 0 0 1-64-64V448a64 64 0 0 1 64-64z" fill="#3671FD" p-id="135226"></path><path d="M128 736a32 32 0 0 1 32 32 96 96 0 0 0 90.368 95.84L256 864a32 32 0 0 1 0 64 160 160 0 0 1-160-160 32 32 0 0 1 32-32z" fill="#FE9C23" p-id="135227"></path></svg>