<svg t="1706509509798" class="icon" viewBox="0 0 1024 1024" version="1.1" xmlns="http://www.w3.org/2000/svg" p-id="17723" width="16" height="16"><path d="M469.5 192H732c55.228 0 100 44.772 100 100v262.5c0 55.228-44.772 100-100 100H469.5c-55.228 0-100-44.772-100-100V292c0-55.228 44.772-100 100-100z" fill="#4988FD" p-id="17724"></path><path d="M380.75 280.75h262.5c55.228 0 100 44.772 100 100v262.5c0 55.228-44.772 100-100 100h-262.5c-55.228 0-100-44.772-100-100v-262.5c0-55.228 44.772-100 100-100z" fill="#DFECFD" p-id="17725"></path><path d="M292 369.5h262.5c55.228 0 100 44.772 100 100V732c0 55.228-44.772 100-100 100H292c-55.228 0-100-44.772-100-100V469.5c0-55.228 44.772-100 100-100z" fill="#4988FD" p-id="17726"></path></svg>