<svg width="16" height="16" viewBox="0 0 16 16" fill="none" xmlns="http://www.w3.org/2000/svg">
    <path fill-rule="evenodd" clip-rule="evenodd" d="M15 11.3825V4H7.98457L6.69633 2.71149C6.22162 2.28559 5.6157 2.03458 4.97888 2H1.05128C1.02296 2 1 2.02296 1 2.05128V13H6.10009C6.50704 11.9276 8.08678 11.2167 9.57755 10.8707C8.77251 10.2792 8.25 9.3256 8.25 8.25C8.25 6.45507 9.70507 5 11.5 5C13.2949 5 14.75 6.45507 14.75 8.25C14.75 9.3256 14.2275 10.2792 13.4224 10.8707C13.9562 10.9946 14.5014 11.1652 15 11.3825Z" fill="#9AA7B0" fill-opacity="0.8"/>
    <path fill-rule="evenodd" clip-rule="evenodd" d="M11.5 10.5C12.7431 10.5 13.75 9.49312 13.75 8.25C13.75 7.00688 12.7431 6 11.5 6C10.2569 6 9.25 7.00688 9.25 8.25C9.25 9.49312 10.2569 10.5 11.5 10.5Z" fill="#9AA7B0"/>
    <path fill-rule="evenodd" clip-rule="evenodd" d="M11.5 11.625C9.99812 11.625 7 12.3787 7 13.875V15H16V13.875C16 12.3787 13.0019 11.625 11.5 11.625Z" fill="#40B6E0"/>
</svg>
