<!--
  - Copyright 2024 XIN LIN HOU<hxl49508@gmail.com>
  - dependencies.svg is part of Cool Request
  -
  - License: GPL-3.0+
  -
  - Cool Request is free software: you can redistribute it and/or modify
  - it under the terms of the GNU General Public License as published by
  - the Free Software Foundation, either version 3 of the License, or
  - (at your option) any later version.
  -
  - Cool Request is distributed in the hope that it will be useful,
  - but WITHOUT ANY WARRANTY; without even the implied warranty of
  - MERCHANTABILITY or FITNESS FOR A PARTICULAR PURPOSE.  See the
  - GNU General Public License for more details.
  -
  - You should have received a copy of the GNU General Public License
  - along with Cool Request.  If not, see <http://www.gnu.org/licenses/>.
  -->

<svg t="1708329357882" class="icon" viewBox="0 0 1024 1024" version="1.1" xmlns="http://www.w3.org/2000/svg" p-id="20246" width="16" height="16"><path d="M942.08 719.067429a126.902857 126.902857 0 0 0-147.748571 14.628571l-60.489143-35.108571v-173.348572a50.249143 50.249143 0 0 0-25.161143-43.52L553.252571 392.265143V315.538286a128 128 0 1 0-82.285714 0v76.726857L315.538286 481.718857a50.249143 50.249143 0 0 0-25.161143 43.52V698.514286l-60.562286 35.108571a126.902857 126.902857 0 0 0-147.675428-14.628571 128.219429 128.219429 0 0 0-46.811429 174.738285 127.049143 127.049143 0 0 0 173.933714 46.811429 128 128 0 0 0 61.220572-135.753143l55.661714-32.329143 160.694857 92.598857a50.614857 50.614857 0 0 0 50.322286 0l160.548571-92.452571 55.661715 32.329143a128.219429 128.219429 0 0 0 61.293714 135.753143 126.976 126.976 0 0 0 173.933714-46.811429 128.146286 128.146286 0 0 0-46.518857-174.811428zM172.909714 877.275429a54.418286 54.418286 0 0 1-74.532571-20.114286 54.857143 54.857143 0 0 1 20.041143-74.898286 54.418286 54.418286 0 0 1 74.532571 20.114286 54.857143 54.857143 0 0 1-20.041143 74.898286zM457.142857 194.267429a54.857143 54.857143 0 1 1 109.714286 0 54.857143 54.857143 0 0 1-109.714286 0z m194.267429 509.952L512 784.603429 372.589714 704.219429V543.744L512 463.433143l139.410286 80.310857v160.475429z m274.212571 153.014857a54.491429 54.491429 0 0 1-74.605714 20.114285 54.930286 54.930286 0 0 1-19.968-74.825142 54.491429 54.491429 0 0 1 74.605714-20.114286 54.857143 54.857143 0 0 1 19.968 74.825143z" fill="#1296db" p-id="20247"></path></svg>