<!--
  - Copyright 2024 XIN LIN HOU<hxl49508@gmail.com>
  - dup.svg is part of Cool Request
  -
  - License: GPL-3.0+
  -
  - Cool Request is free software: you can redistribute it and/or modify
  - it under the terms of the GNU General Public License as published by
  - the Free Software Foundation, either version 3 of the License, or
  - (at your option) any later version.
  -
  - Cool Request is distributed in the hope that it will be useful,
  - but WITHOUT ANY WARRANTY; without even the implied warranty of
  - MERCHANTABILITY or FITNESS FOR A PARTICULAR PURPOSE.  See the
  - GNU General Public License for more details.
  -
  - You should have received a copy of the GNU General Public License
  - along with Cool Request.  If not, see <http://www.gnu.org/licenses/>.
  -->

<svg t="1705024585500" class="icon" viewBox="0 0 1024 1024" version="1.1" xmlns="http://www.w3.org/2000/svg" p-id="4232" width="16" height="16"><path d="M898.133333 492.8a42.666667 42.666667 0 0 1 42.666667 42.666667v85.333333a213.333333 213.333333 0 0 1-213.333333 213.333333H233.173333L341.333333 942.336A42.666667 42.666667 0 0 1 281.002667 1002.666667l-181.034667-181.034667-2.261333-2.432-3.072-4.053333-1.962667-3.242667-2.645333-5.845333-1.024-3.242667-1.066667-4.992-0.298667-2.517333-0.170666-3.84 0.128-3.2 0.768-5.461334 1.237333-4.650666 1.877333-4.736 2.218667-4.138667 1.28-1.962667 1.450667-2.005333c1.237333-1.536 2.346667-2.816 3.541333-4.010667l181.034667-180.992A42.666667 42.666667 0 0 1 341.333333 640.64L233.130667 748.8H727.466667a128 128 0 0 0 127.786666-120.448l0.213334-7.552v-85.333333a42.666667 42.666667 0 0 1 42.666666-42.666667zM742.997333 21.333333l181.034667 181.034667 2.261333 2.432 3.072 4.053333 1.962667 3.242667 2.645333 5.845333 1.024 3.242667 0.853334 3.882667 0.512 3.626666 0.170666 3.84-0.128 3.2-0.768 5.461334-1.237333 4.650666-1.877333 4.736-2.218667 4.138667-1.28 1.962667-1.450667 2.005333c-1.237333 1.536-2.346667 2.816-3.541333 4.010667l-181.034667 180.992A42.666667 42.666667 0 0 1 682.666667 383.36l108.202666-108.16H296.533333a128 128 0 0 0-127.786666 120.448l-0.213334 7.552v85.333333a42.666667 42.666667 0 0 1-85.333333 0v-85.333333a213.333333 213.333333 0 0 1 213.333333-213.333333h494.293334L682.666667 81.664A42.666667 42.666667 0 1 1 742.997333 21.333333z" fill="#CED0D6" p-id="4233"></path></svg>