<svg t="1706151855149" class="icon" viewBox="0 0 1024 1024" version="1.1" xmlns="http://www.w3.org/2000/svg" p-id="6135" width="16" height="16"><path d="M851.706667 653.166667a21.333333 21.333333 0 0 1-4.62 23.253333l-298.666667 298.666667a21.333333 21.333333 0 0 1-30.173333 0l-298.666667-298.666667A21.333333 21.333333 0 0 1 234.666667 640h597.333333a21.333333 21.333333 0 0 1 19.706667 13.166667zM234.666667 384h597.333333a21.333333 21.333333 0 0 0 15.086667-36.42l-298.666667-298.666667a21.333333 21.333333 0 0 0-30.173333 0l-298.666667 298.666667A21.333333 21.333333 0 0 0 234.666667 384z" fill="#1A5598" p-id="6136"></path></svg>