<svg t="1706154401109" class="icon" viewBox="0 0 1024 1024" version="1.1" xmlns="http://www.w3.org/2000/svg" p-id="106808" width="16" height="16"><path d="M102.505095 877.1448H919.213044c33.644561-1.453005 61.220885 15.425134 61.193458 46.580454v5.268816c1.031553 33.814479-26.879926 51.281313-61.193458 49.925309H102.505095c-40.773785 0-59.002577-12.693057-61.198809-48.587367v-5.269485c1.527261-36.214079 23.157771-49.147965 61.198809-47.917727z m836.401788-537.958418L612.352681 56.719379a18.939908 18.939908 0 0 0-20.044379-2.474524 18.955295 18.955295 0 0 0-10.895532 17.003906v158.855872c-0.14985 9.740887-7.766754 16.692834-17.28755 18.76263-407.396677 88.581132-472.185854 425.174582-474.324554 546.45502-0.15587 8.819045 6.040809 16.485453 14.619024 18.501732 8.580223 2.014272 17.422013-2.150073 21.325459-10.057311C209.917762 630.319236 340.613297 444.815572 561.577779 463.097213c5.178505 0.428141 10.243954 1.745345 13.982163 5.357789 3.746238 3.612444 5.860186 8.593602 5.852828 13.794183v155.116992a18.953288 18.953288 0 0 0 10.805889 17.159108 18.936563 18.936563 0 0 0 20.134022-2.426358l326.554202-284.138093a19.157324 19.157324 0 0 0 6.512433-14.386891c0-5.509646-2.374847-10.754379-6.512433-14.387561z m0 0" fill="#4b9371" p-id="106809"></path></svg>