<svg t="1706863422234" class="icon" viewBox="0 0 1024 1024" version="1.1" xmlns="http://www.w3.org/2000/svg" p-id="43400" width="16" height="16"><path d="M512 896a384 384 0 1 0 0-768 384 384 0 0 0 0 768z m0 85.333333C252.8 981.333333 42.666667 771.2 42.666667 512S252.8 42.666667 512 42.666667s469.333333 210.133333 469.333333 469.333333-210.133333 469.333333-469.333333 469.333333z m-21.333333-298.666666H554.666667a21.333333 21.333333 0 0 1 21.333333 21.333333v42.666667a21.333333 21.333333 0 0 1-21.333333 21.333333h-64a21.333333 21.333333 0 0 1-21.333334-21.333333v-42.666667a21.333333 21.333333 0 0 1 21.333334-21.333333zM341.333333 408.064c2.858667-68.650667 26.581333-117.290667 71.168-145.92 28.16-18.346667 62.72-27.477333 103.722667-27.477333 53.888 0 98.645333 13.013333 134.314667 38.997333 35.626667 26.026667 53.461333 64.554667 53.461333 115.626667 0 31.274667-7.765333 57.685333-23.253333 79.104-9.045333 13.013333-26.453333 29.610667-52.224 49.834666l-25.386667 19.882667c-13.824 10.837333-23.04 23.466667-27.52 37.930667-2.858667 9.130667-4.437333 23.338667-4.693333 42.624h-96.554667c1.450667-40.704 5.248-68.821333 11.477333-84.352 6.186667-15.530667 22.186667-33.408 47.914667-53.632l26.112-20.608a91.733333 91.733333 0 0 0 20.736-21.333334c9.557333-13.226667 15.914667-27.776 15.914667-43.690666 0-18.304-5.290667-34.986667-15.914667-50.005334-10.624-15.061333-31.573333-22.613333-59.733333-22.613333-27.648 0-51.285333 7.338667-62.848 25.898667-11.562667 18.517333-18.602667 39.722667-18.602667 59.733333H341.333333z" fill="#5D78F2" p-id="43401"></path></svg>