<!--
  - Copyright 2024 XIN LIN HOU<hxl49508@gmail.com>
  - idea.svg is part of Cool Request
  -
  - License: GPL-3.0+
  -
  - Cool Request is free software: you can redistribute it and/or modify
  - it under the terms of the GNU General Public License as published by
  - the Free Software Foundation, either version 3 of the License, or
  - (at your option) any later version.
  -
  - Cool Request is distributed in the hope that it will be useful,
  - but WITHOUT ANY WARRANTY; without even the implied warranty of
  - MERCHANTABILITY or FITNESS FOR A PARTICULAR PURPOSE.  See the
  - GNU General Public License for more details.
  -
  - You should have received a copy of the GNU General Public License
  - along with Cool Request.  If not, see <http://www.gnu.org/licenses/>.
  -->

<svg t="1706087992248" class="icon" viewBox="0 0 1024 1024" version="1.1" xmlns="http://www.w3.org/2000/svg" p-id="9291" width="16" height="16"><path d="M140.632 434.92H77.816A28.424 28.424 0 0 0 49.36 463.384a28.32 28.32 0 0 0 28.456 28.464h62.816a28.424 28.424 0 0 0 28.456-28.464c0-15.664-12.8-28.464-28.456-28.464z" fill="#194F82" p-id="9292"></path><path d="M754.952 463.384c0-133.744-108.616-242.56-242.496-242.56-117.376-3.032-227.84 94.504-240.48 211.064-9.088 72.432 13.816 144.184 63.152 197.072 46.48 49.696 72.752 116.056 75.28 187.816h203.928c2.864-69.4 30.312-137.28 79.32-192.024a242.632 242.632 0 0 0 61.296-161.36z" fill="#FFFFFF" p-id="9293"></path><path d="M512.04 277.168c5.816-0.64-5.808 0 0 0zM512.456 277.256c-107.944 6.4-173.784 77.992-184.232 161.2-7.072 55.584 10.616 110.672 48.504 151.264 56.416 60.136 87.904 140.48 90.6 226.72h90.088c2.864-83.544 35.368-164.904 93.632-230.088 30.144-34.024 46.984-77.656 46.984-123.472 0-102.24-83.192-185.624-185.576-185.624z" fill="#FFC10D" p-id="9294"></path><path d="M512.456 119.928a28.424 28.424 0 0 0 28.456-28.464V28.464A28.424 28.424 0 0 0 512.456 0 28.424 28.424 0 0 0 484 28.464v62.832c0 15.84 12.8 28.64 28.456 28.64zM947.096 434.92h-62.816a28.424 28.424 0 0 0-28.456 28.464 28.32 28.32 0 0 0 28.456 28.464h62.816a28.424 28.424 0 0 0 28.456-28.464c0-15.664-12.8-28.464-28.456-28.464zM799.744 135.936l-44.456 44.464a28.472 28.472 0 0 0 0 40.264 28.456 28.456 0 0 0 40.248 0l44.456-44.472a28.464 28.464 0 0 0 0-40.256c-11.12-11.12-29.304-11.12-40.24 0zM229.376 706.28l-44.456 44.472a28.472 28.472 0 0 0 0 40.256 28.456 28.456 0 0 0 40.24 0l44.464-44.464a28.472 28.472 0 0 0 0-40.264c-10.944-11.12-29.136-11.12-40.248 0zM795.536 706.28a28.472 28.472 0 0 0-40.248 40.256l44.456 44.48A28.472 28.472 0 0 0 840 750.752l-44.456-44.48zM229.376 220.488a28.472 28.472 0 0 0 40.248-40.256l-44.456-44.464a28.472 28.472 0 0 0-40.248 40.256l44.456 44.464z" fill="#194F82" p-id="9295"></path><path d="M411.08 873.376h202.752v92.648H411.08z" fill="#56ACE0" p-id="9296"></path><path d="M512.456 396.344a41.944 41.944 0 0 1 41.928 41.944 28.424 28.424 0 0 0 28.464 28.464 28.424 28.424 0 0 0 28.456-28.464c0-44.472-29.64-82.2-70.224-94.496v-18.528a28.424 28.424 0 0 0-28.456-28.472 28.32 28.32 0 0 0-28.464 28.472v18.528c-40.584 12.296-70.216 49.856-70.216 94.496 0 54.4 44.288 98.704 98.68 98.704-0.84 0.176 0 0 0.168 0 21.384 2.024 41.6 19.712 41.6 41.44a41.944 41.944 0 0 1-41.936 41.944 41.84 41.84 0 0 1-41.928-41.944 28.424 28.424 0 0 0-28.464-28.464 28.424 28.424 0 0 0-28.456 28.464c0 44.472 29.64 82.2 70.224 94.496v18.36a28.424 28.424 0 0 0 28.456 28.464 28.424 28.424 0 0 0 28.464-28.464v-18.36c40.584-12.296 70.216-49.856 70.216-94.496 0-54.4-47.824-98.536-102.216-98.536 0.84-0.168 0 0-0.16 0-21.392-2.024-38.064-19.88-38.064-41.608a41.936 41.936 0 0 1 41.928-41.944z" fill="#194F82" p-id="9297"></path><path d="M512.456 164.064c-147.52 0-279.376 111.176-296.888 260.752-11.28 89.28 17.344 177.704 78.136 242.888 39.072 41.944 60.624 98.88 60.624 160.528v166.256a28.424 28.424 0 0 0 28.456 28.464h259.68a28.424 28.424 0 0 0 28.456-28.464v-166.592c0-59.456 23.072-118.416 65.336-165.744a299.344 299.344 0 0 0 75.616-198.928c-0.168-164.912-134.384-299.16-299.416-299.16z m101.376 802.12H411.08v-92.64h202.752v92.64z m79.824-341.6c-48.672 54.744-76.456 122.632-79.32 192.024h-203.76c-2.696-71.76-28.96-138.12-75.28-187.816-49.336-52.72-72.24-124.64-63.144-197.072 12.632-116.56 123.264-214.256 240.48-211.056 133.704 0 242.488 108.64 242.488 242.56-0.168 59.624-21.888 117.064-61.464 161.36z" fill="#194F82" p-id="9298"></path></svg>