<svg t="1706154153774" class="icon" viewBox="0 0 1024 1024" version="1.1" xmlns="http://www.w3.org/2000/svg" p-id="105531" width="16" height="16"><path d="M810.666667 85.333333a128 128 0 0 1 128 128v597.333334a128 128 0 0 1-128 128H213.333333a128 128 0 0 1-128-128V213.333333a128 128 0 0 1 128-128h597.333334zM341.333333 426.666667H170.666667v384a42.666667 42.666667 0 0 0 37.674666 42.368L213.333333 853.333333h128V426.666667z m512 0H426.666667v426.666666h384a42.666667 42.666667 0 0 0 42.368-37.674666L853.333333 810.666667v-384z m-42.666666-256H213.333333a42.666667 42.666667 0 0 0-42.368 37.674666L170.666667 213.333333v128h682.666666V213.333333a42.666667 42.666667 0 0 0-42.666666-42.666666z" fill="#6078f7" p-id="105532"></path></svg>