<svg t="1707184082469" class="icon" viewBox="0 0 1053 1024" version="1.1" xmlns="http://www.w3.org/2000/svg" p-id="6852" width="14" height="14"><path d="M500.388718 890.177829l-238.036115 127.210057a56.144457 56.144457 0 0 1-76.361142-24.107886 58.192457 58.192457 0 0 1-5.646629-36.4544l50.410057-299.008-213.694171-211.997257a58.221714 58.221714 0 0 1-0.994743-81.334857c8.660114-9.069714 20.0704-14.921143 32.3584-16.822857l295.438628-43.593143 132.066743-272.003657a56.202971 56.202971 0 0 1 101.434515 0l132.066742 272.120685 295.438629 43.593143c30.866286 4.593371 52.311771 33.792 47.776914 65.155657-1.755429 12.4928-7.519086 24.078629-16.530285 32.885029l-213.8112 211.821714L872.715118 956.708571c5.266286 31.217371-15.447771 61.059657-46.167772 66.413715-12.288 2.165029-24.810057 0.117029-35.869257-5.7344l-237.860571-127.093029a55.003429 55.003429 0 0 0-52.4288-0.117028z" fill="#F5A623" p-id="6853"></path></svg>