<!--
  - Copyright 2024 XIN LIN HOU<hxl49508@gmail.com>
  - money.svg is part of Cool Request
  -
  - License: GPL-3.0+
  -
  - Cool Request is free software: you can redistribute it and/or modify
  - it under the terms of the GNU General Public License as published by
  - the Free Software Foundation, either version 3 of the License, or
  - (at your option) any later version.
  -
  - Cool Request is distributed in the hope that it will be useful,
  - but WITHOUT ANY WARRANTY; without even the implied warranty of
  - MERCHANTABILITY or FITNESS FOR A PARTICULAR PURPOSE.  See the
  - GNU General Public License for more details.
  -
  - You should have received a copy of the GNU General Public License
  - along with Cool Request.  If not, see <http://www.gnu.org/licenses/>.
  -->

<svg t="1709542222502" class="icon" viewBox="0 0 1104 1024" version="1.1" xmlns="http://www.w3.org/2000/svg" p-id="42987" width="16" height="16"><path d="M428.848454 12.351295m101.288973 36.866171l455.800378 165.89777q101.288973 36.866171 64.422802 138.155145l-202.763942 557.089351q-36.866171 101.288973-138.155144 64.422802l-455.800379-165.89777q-101.288973-36.866171-64.422802-138.155145l202.763942-557.089351q36.866171-101.288973 138.155145-64.422802Z" fill="#EB4B29" opacity=".402" p-id="42988"></path><path d="M22.905263 277.396211v516.392421c0 98.708211 20.668632 106.576842 113.798737 106.576842h588.907789c93.130105 0 113.771789-7.868632 113.77179-106.630737V272.518737L22.905263 277.423158z" fill="#EB4B29" p-id="42989"></path><path d="M725.638737 38.696421H136.704c-93.130105 0-113.771789 26.112-113.771789 124.847158v123.230316s151.983158 91.082105 403.482947 91.082105c251.526737 0 412.968421-92.645053 412.968421-92.645053V163.516632c0-98.708211-20.641684-124.820211-113.744842-124.820211z" fill="#CF2709" p-id="42990"></path><path d="M725.638737 15.845053H136.704C43.573895 15.845053 22.932211 41.930105 22.932211 140.665263v123.230316s151.983158 91.082105 403.482947 91.082105c251.526737 0 412.968421-92.645053 412.968421-92.645052V140.665263c0-98.735158-20.641684-124.820211-113.744842-124.82021z" fill="#FF583F" p-id="42991"></path><path d="M621.406316 353.010526a190.275368 190.275368 0 1 1-380.550737 0 190.275368 190.275368 0 0 1 380.577684 0z" fill="#FFF48D" p-id="42992"></path><path d="M479.151158 229.699368l-38.615579 85.962106c-2.452211 5.524211-4.796632 11.048421-7.060211 16.626526h-0.673684l-46.672842-102.615579h-57.020631l63.865263 114.472421h-48.424421v32.606316h59.014736v28.186947h-59.014736v32.606316h59.014736v47.292632h54.137264v-47.265685h57.128421v-32.606315h-57.128421v-28.16h57.128421v-32.606316h-47.373474l65.751579-114.499369H479.124211z" fill="#EB4B29" p-id="42993"></path></svg>