<svg t="1709544383315" class="icon" viewBox="0 0 1024 1024" version="1.1" xmlns="http://www.w3.org/2000/svg" p-id="121338" width="16" height="16"><path d="M376.98 128m30 0l209.96 0q30 0 30 30l0 129.03q0 30-30 30l-209.96 0q-30 0-30-30l0-129.03q0-30 30-30Z" fill="#B2D4F7" p-id="121339"></path><path d="M689.95 128m30 0l209.96 0q30 0 30 30l0 129.03q0 30-30 30l-209.96 0q-30 0-30-30l0-129.03q0-30 30-30Z" fill="#B2D4F7" p-id="121340"></path><path d="M64 128m30 0l209.96 0q30 0 30 30l0 129.03q0 30-30 30l-209.96 0q-30 0-30-30l0-129.03q0-30 30-30Z" fill="#B2D4F7" p-id="121341"></path><path d="M64.01 368.02m30 0l835.99 0q30 0 30 30l0 467.98q0 30-30 30l-835.99 0q-30 0-30-30l0-467.98q0-30 30-30Z" fill="#0072E6" p-id="121342"></path></svg>