<!--
  - Copyright 2024 XIN LIN HOU<hxl49508@gmail.com>
  - open_new_tab.svg is part of Cool Request
  -
  - License: GPL-3.0+
  -
  - Cool Request is free software: you can redistribute it and/or modify
  - it under the terms of the GNU General Public License as published by
  - the Free Software Foundation, either version 3 of the License, or
  - (at your option) any later version.
  -
  - Cool Request is distributed in the hope that it will be useful,
  - but WITHOUT ANY WARRANTY; without even the implied warranty of
  - MERCHANTABILITY or FITNESS FOR A PARTICULAR PURPOSE.  See the
  - GNU General Public License for more details.
  -
  - You should have received a copy of the GNU General Public License
  - along with Cool Request.  If not, see <http://www.gnu.org/licenses/>.
  -->

<svg t="1709544383315" class="icon" viewBox="0 0 1024 1024" version="1.1" xmlns="http://www.w3.org/2000/svg" p-id="121338" width="16" height="16"><path d="M376.98 128m30 0l209.96 0q30 0 30 30l0 129.03q0 30-30 30l-209.96 0q-30 0-30-30l0-129.03q0-30 30-30Z" fill="#B2D4F7" p-id="121339"></path><path d="M689.95 128m30 0l209.96 0q30 0 30 30l0 129.03q0 30-30 30l-209.96 0q-30 0-30-30l0-129.03q0-30 30-30Z" fill="#B2D4F7" p-id="121340"></path><path d="M64 128m30 0l209.96 0q30 0 30 30l0 129.03q0 30-30 30l-209.96 0q-30 0-30-30l0-129.03q0-30 30-30Z" fill="#B2D4F7" p-id="121341"></path><path d="M64.01 368.02m30 0l835.99 0q30 0 30 30l0 467.98q0 30-30 30l-835.99 0q-30 0-30-30l0-467.98q0-30 30-30Z" fill="#0072E6" p-id="121342"></path></svg>