<!--
  - Copyright 2024 XIN LIN HOU<hxl49508@gmail.com>
  - refresh.svg is part of Cool Request
  -
  - License: GPL-3.0+
  -
  - Cool Request is free software: you can redistribute it and/or modify
  - it under the terms of the GNU General Public License as published by
  - the Free Software Foundation, either version 3 of the License, or
  - (at your option) any later version.
  -
  - Cool Request is distributed in the hope that it will be useful,
  - but WITHOUT ANY WARRANTY; without even the implied warranty of
  - MERCHANTABILITY or FITNESS FOR A PARTICULAR PURPOSE.  See the
  - GNU General Public License for more details.
  -
  - You should have received a copy of the GNU General Public License
  - along with Cool Request.  If not, see <http://www.gnu.org/licenses/>.
  -->

<svg t="1706150745031" class="icon" viewBox="0 0 1024 1024" version="1.1" xmlns="http://www.w3.org/2000/svg" p-id="54005" width="16" height="16"><path d="M187.456 425.024a336 336 0 0 0 368.384 420.224 48 48 0 0 1 12.544 95.168 432 432 0 0 1-473.664-540.16l-57.28-15.36a12.8 12.8 0 0 1-6.272-20.928l159.168-179.456a12.8 12.8 0 0 1 22.144 5.888l48.064 235.072a12.8 12.8 0 0 1-15.808 14.912l-57.28-15.36zM836.48 599.04a336 336 0 0 0-368.384-420.224 48 48 0 1 1-12.544-95.168 432 432 0 0 1 473.664 540.16l57.28 15.36a12.8 12.8 0 0 1 6.272 20.928l-159.168 179.456a12.8 12.8 0 0 1-22.144-5.888l-48.064-235.072a12.8 12.8 0 0 1 15.808-14.912l57.28 15.36z" fill="#299C6C" p-id="54006"></path></svg>