<svg t="1712638244715" class="icon" viewBox="0 0 1024 1024" version="1.1" xmlns="http://www.w3.org/2000/svg" p-id="47787" width="14" height="14"><path d="M134.656 915.968h754.688c32.256 0 53.76 21.504 53.76 53.76S921.6 1024 889.344 1024H134.656c-32.256 0-53.76-21.504-53.76-53.76s21.504-54.272 53.76-54.272z" fill="#FC6238" p-id="47788"></path><path d="M598.016 264.192l-398.848 398.848v80.896h80.896l393.216-398.848-75.264-80.896z m37.888-113.152L786.944 302.08c21.504 21.504 21.504 53.76 0 75.264l-452.608 452.608c-10.752 10.752-21.504 16.384-37.888 16.384l-156.16 5.632c-32.256 0-53.76-27.136-53.76-53.76l5.632-156.16c0-16.384 5.632-27.136 16.384-37.888l452.608-452.608c20.992-22.016 53.248-22.016 74.752-0.512z m113.152-113.152l151.04 151.04c21.504 21.504 21.504 53.76 0 75.264s-53.76 21.504-75.264 0l-151.04-151.04c-21.504-21.504-21.504-53.76 0-75.264 21.504-21.504 53.76-21.504 75.264 0z" fill="#3399FF" p-id="47789"></path></svg>