<svg t="1708607041705" class="icon" viewBox="0 0 1024 1024" version="1.1" xmlns="http://www.w3.org/2000/svg" p-id="13690" width="20" height="20"><path d="M292 196h440c55.228 0 100 44.772 100 100v440c0 55.228-44.772 100-100 100H292c-55.228 0-100-44.772-100-100V296c0-55.228 44.772-100 100-100z" fill="#4988FD" p-id="13691"></path><path d="M686.46 206v153.32c0 39.848-29.758 72.15-66.462 72.15h-216c-36.704 0.002-66.46-32.302-66.46-72.15V206H686.46z" fill="#DFECFD" p-id="13692"></path><path d="M619.998 441.47h-216c-20.58 0-39.88-8.648-54.35-24.356-14.258-15.478-22.11-36.002-22.11-57.792V196H696.46v163.32c0 45.298-34.3 82.15-76.462 82.15zM347.538 216v143.32c0 16.754 5.974 32.468 16.822 44.244 10.636 11.548 24.714 17.908 39.638 17.906h216c31.132 0 56.462-27.88 56.462-62.15V216H347.538z" fill="#DFECFD" p-id="13693"></path><path d="M621 377c-16.568 0-30-13.432-30-30v-54c0-16.568 13.432-30 30-30s30 13.432 30 30v54c0 16.568-13.432 30-30 30z" fill="#4988FD" p-id="13694"></path><path d="M640 706H384c-16.568 0-30-13.432-30-30s13.432-30 30-30h256c16.568 0 30 13.432 30 30s-13.432 30-30 30z" fill="#DFECFD" p-id="13695"></path></svg>