<!--
  - Copyright 2024 XIN LIN HOU<hxl49508@gmail.com>
  - save.svg is part of Cool Request
  -
  - License: GPL-3.0+
  -
  - Cool Request is free software: you can redistribute it and/or modify
  - it under the terms of the GNU General Public License as published by
  - the Free Software Foundation, either version 3 of the License, or
  - (at your option) any later version.
  -
  - Cool Request is distributed in the hope that it will be useful,
  - but WITHOUT ANY WARRANTY; without even the implied warranty of
  - MERCHANTABILITY or FITNESS FOR A PARTICULAR PURPOSE.  See the
  - GNU General Public License for more details.
  -
  - You should have received a copy of the GNU General Public License
  - along with Cool Request.  If not, see <http://www.gnu.org/licenses/>.
  -->

<svg t="1708835117371" class="icon" viewBox="0 0 1024 1024" version="1.1" xmlns="http://www.w3.org/2000/svg" p-id="47210" width="16" height="16"><path d="M919.466667 264.533333V832c0 46.933333-38.4 85.333333-85.333334 85.333333h-640c-46.933333 0-85.333333-38.4-85.333333-85.333333V192c0-46.933333 38.4-85.333333 85.333333-85.333333h567.466667c6.4 0 10.666667 2.133333 14.933333 6.4l136.533334 136.533333c4.266667 4.266667 6.4 8.533333 6.4 14.933333z" fill="#1890FF" p-id="47211"></path><path d="M322.133333 106.666667h384v213.333333h-384zM258.133333 640h512v277.333333h-512z" fill="#FFFFFF" p-id="47212"></path><path d="M599.466667 149.333333h64v128h-64zM364.8 725.333333h298.666667v21.333334h-298.666667zM364.8 810.666667h298.666667v21.333333h-298.666667z" fill="#69C0FF" p-id="47213"></path></svg>