<svg t="1704931819443" class="icon" viewBox="0 0 1024 1024" version="1.1" xmlns="http://www.w3.org/2000/svg" p-id="15136" width="16" height="16"><path d="M512 312c110.458 0 200 89.542 200 200s-89.542 200-200 200-200-89.542-200-200 89.542-200 200-200z" fill="#DFEAFF" p-id="15137"></path><path d="M511.69 832.104c-51.544 0-102.64-12.548-149.312-37.234-155.972-82.5-215.748-276.514-133.248-432.488 82.502-155.976 276.514-215.748 432.488-133.248 3.558 1.882 9.488 5.232 10.152 5.608 14.422 8.158 19.498 26.462 11.34 40.882-8.158 14.422-26.468 19.494-40.882 11.34a480.178 480.178 0 0 0-8.66-4.792c-126.734-67.038-284.37-18.468-351.4 108.262-67.03 126.728-18.464 284.366 108.264 351.394 124.186 65.692 276.492 21.84 346.734-99.828 42.326-73.306 45.992-163.434 9.81-241.09-6.998-15.018-0.496-32.866 14.524-39.864 15.016-6.996 32.866-0.494 39.864 14.524 21.544 46.24 32.054 97.314 30.392 147.7-1.712 51.966-16.456 103.398-42.628 148.73-41.62 72.09-108.596 124.476-188.59 147.51-29.258 8.422-59.126 12.594-88.848 12.594z" fill="#1F48D1" p-id="15138"></path><path d="M511.472 542.87c-5.09 0-10.248-1.296-14.972-4.026-14.348-8.284-19.264-26.632-10.98-40.98l143-247.682c8.284-14.348 26.632-19.266 40.98-10.98 14.35 8.284 19.266 26.632 10.98 40.98l-143 247.682c-5.556 9.624-15.64 15.006-26.008 15.006z" fill="#1F48D1" p-id="15139"></path></svg>