<svg t="1706156268233" class="icon" viewBox="0 0 1024 1024" version="1.1" xmlns="http://www.w3.org/2000/svg" p-id="117244" width="16" height="16"><path d="M952 896l-204.992-204.992q86.016-106.016 86.016-243.008 0-159.008-112.512-271.488T448.512 64t-272 112.512T64 448.512t112.512 272T448 833.024q136.992 0 242.016-84.992l204.992 204q12 12 28.512 12t28-11.488 11.488-28-11.008-28.512z m-381.984-160Q512 760.992 448 760.992q-63.008 0-120.992-24.992-56-23.008-100-66.016Q184 625.984 160 569.984q-24-58.016-24-122.016 0-63.008 24-120.992 24-56 67.008-99.008 44-44 100-68 58.016-24 120.992-24 64 0 122.016 24 56 24 99.488 67.488T736 326.944q24.992 58.016 24.992 122.016 0 63.008-24.992 120.992-23.008 56-66.016 100-44 43.008-100 66.016z" p-id="117245" fill="#50B0A9"></path></svg>