<?xml version="1.0" encoding="UTF-8"?>
<svg width="16px" height="16px" viewBox="0 0 36 36" version="1.1" xmlns="http://www.w3.org/2000/svg" xmlns:xlink="http://www.w3.org/1999/xlink">
    <!-- Generator: Sketch 50.2 (55047) - http://www.bohemiancoding.com/sketch -->
    <title>cog</title>
    <desc>Created with Sketch.</desc>
    <defs></defs>
    <g id="Vivid.JS" stroke="none" stroke-width="1" fill="none" fill-rule="evenodd">
        <g id="Vivid-Icons" transform="translate(-43.000000, -331.000000)">
            <g id="Icons" transform="translate(37.000000, 169.000000)">
                <g id="cog" transform="translate(0.000000, 156.000000)">
                    <g transform="translate(6.000000, 6.000000)" id="Shape">
                        <path d="M13.08,6.122 L15,0 L21,0 L22.92,6.122 L13.08,6.122 Z M12.986,30 L14.924,36 L21.077,36 L23.015,30 L12.986,30 Z M29.878,13.08 L36,15 L36,21 L29.878,22.92 L29.878,13.08 Z M6,12.986 L0,14.924 L0,21.077 L6,23.015 L6,12.986 Z M22.92,6.122 L28.606,3.151 L32.849,7.394 L29.878,13.08 L22.92,6.122 Z M5.967,22.942 L3.1,28.553 L7.447,32.9 L13.058,30.03 L5.967,22.942 Z M29.878,22.92 L32.849,28.606 L28.606,32.849 L22.92,29.878 L29.878,22.92 Z M13.058,5.967 L7.447,3.1 L3.1,7.447 L5.97,13.058 L13.058,5.967 Z" fill="#FF6E6E"></path>
                        <path d="M18,31 C10.8202983,31 5,25.1797017 5,18 C5,10.8202983 10.8202983,5 18,5 C25.1797017,5 31,10.8202983 31,18 C31,25.1797017 25.1797017,31 18,31 Z M18,13.125 C15.3076118,13.125 13.125,15.3076118 13.125,18 C13.125,20.6923882 15.3076118,22.875 18,22.875 C20.6923882,22.875 22.875,20.6923882 22.875,18 C22.875,15.3076118 20.6923882,13.125 18,13.125 Z" fill="#0C0058"></path>
                        <path d="M18,25 C15.1687643,25 12.6163103,23.2945048 11.5328433,20.678784 C10.4493763,18.0630633 11.0482666,15.0522385 13.0502525,13.0502525 C15.0522385,11.0482666 18.0630633,10.4493763 20.678784,11.5328433 C23.2945048,12.6163103 25,15.1687643 25,18 C25,21.8659932 21.8659932,25 18,25 Z M18,15 C16.3431458,15 15,16.3431458 15,18 C15,19.6568542 16.3431458,21 18,21 C19.6568542,21 21,19.6568542 21,18 C21,16.3431458 19.6568542,15 18,15 Z" fill="#FF6E6E"></path>
                    </g>
                </g>
            </g>
        </g>
    </g>
</svg>