<!--
  - Copyright 2024 XIN LIN HOU<hxl49508@gmail.com>
  - template.svg is part of Cool Request
  -
  - License: GPL-3.0+
  -
  - Cool Request is free software: you can redistribute it and/or modify
  - it under the terms of the GNU General Public License as published by
  - the Free Software Foundation, either version 3 of the License, or
  - (at your option) any later version.
  -
  - Cool Request is distributed in the hope that it will be useful,
  - but WITHOUT ANY WARRANTY; without even the implied warranty of
  - MERCHANTABILITY or FITNESS FOR A PARTICULAR PURPOSE.  See the
  - GNU General Public License for more details.
  -
  - You should have received a copy of the GNU General Public License
  - along with Cool Request.  If not, see <http://www.gnu.org/licenses/>.
  -->

<svg t="1706857648507" class="icon" viewBox="0 0 1024 1024" version="1.1" xmlns="http://www.w3.org/2000/svg" p-id="30167" width="17" height="17"><path d="M352 196h400c44.184 0 80 35.818 80 80v320c0 44.184-35.816 80-80 80H352c-44.182 0-80-35.816-80-80V276c0-44.182 35.818-80 80-80z" fill="#DFECFD" p-id="30168"></path><path d="M752 676H352c-44.112 0-80-35.888-80-80V276c0-44.112 35.888-80 80-80h400c44.112 0 80 35.888 80 80v320c0 44.112-35.888 80-80 80zM352 256c-11.028 0-20 8.972-20 20v320c0 11.028 8.972 20 20 20h400c11.028 0 20-8.972 20-20V276c0-11.028-8.972-20-20-20H352z" fill="#DFECFD" p-id="30169"></path><path d="M272 356h400c44.184 0 80 35.818 80 80v320c0 44.184-35.816 80-80 80H272c-44.182 0-80-35.816-80-80V436c0-44.182 35.818-80 80-80z" fill="#4988FD" p-id="30170"></path><path d="M672 836H272c-44.112 0-80-35.888-80-80V436c0-44.112 35.888-80 80-80h400c44.112 0 80 35.888 80 80v320c0 44.112-35.888 80-80 80zM272 416c-11.028 0-20 8.972-20 20v320c0 11.028 8.972 20 20 20h400c11.028 0 20-8.972 20-20V436c0-11.028-8.972-20-20-20H272z" fill="#4988FD" p-id="30171"></path><path d="M412.978 705.002c-6.294 0-12.64-1.972-18.05-6.056-13.224-9.98-15.854-28.792-5.874-42.018l120-159c9.978-13.222 28.794-15.854 42.018-5.874s15.854 28.792 5.874 42.018l-120 159a29.954 29.954 0 0 1-23.968 11.93z" fill="#DFECFD" p-id="30172"></path><path d="M286 626a29.906 29.906 0 0 1-21.212-8.786c-11.716-11.716-11.716-30.712 0-42.428l50.912-50.91c11.714-11.716 30.71-11.716 42.426 0 11.714 11.714 11.714 30.71 0 42.426l-50.912 50.912A29.906 29.906 0 0 1 286 626z" fill="#DFECFD" p-id="30173"></path><path d="M336.912 676.912a29.9 29.9 0 0 1-21.212-8.788l-50.912-50.91c-11.716-11.716-11.716-30.712 0-42.428 11.716-11.716 30.71-11.716 42.426 0l50.912 50.912c11.714 11.716 11.714 30.712 0 42.426a29.91 29.91 0 0 1-21.214 8.788z" fill="#DFECFD" p-id="30174"></path><path d="M660 626a29.914 29.914 0 0 1-21.214-8.788l-50.91-50.912c-11.718-11.714-11.718-30.708 0-42.426 11.714-11.714 30.71-11.714 42.426 0l50.912 50.912c11.716 11.714 11.716 30.71 0 42.426A29.914 29.914 0 0 1 660 626z" fill="#DFECFD" p-id="30175"></path><path d="M609.088 676.91a29.9 29.9 0 0 1-21.212-8.788c-11.718-11.718-11.718-30.71 0-42.426l50.91-50.91c11.718-11.716 30.714-11.716 42.428 0 11.716 11.716 11.716 30.71 0 42.426l-50.914 50.91a29.9 29.9 0 0 1-21.212 8.788z" fill="#DFECFD" p-id="30176"></path></svg>