<svg t="1710739413551" class="icon" viewBox="0 0 1024 1024" version="1.1" xmlns="http://www.w3.org/2000/svg" p-id="5991" width="16" height="16"><path d="M967.010 512c0-251.28-203.715-454.995-455.010-454.995s-455.010 203.715-455.010 454.995c0 251.295 203.715 454.995 455.010 454.995 251.295 0 455.010-203.7 455.010-454.995M576.83 720.935c-67.215 71.85-152.19 94.74-162.345 40.695-7.65-40.755 32.535-188.52 40.59-244.185 2.625-18.18-20.295 0-20.295 0s-65.97 46.455-81.15 20.355c-2.43-4.155 13.845-16.92 20.295-20.355 0 0 137.61-101.1 182.625-81.39s-15.855 144.345-20.295 162.795c-4.44 18.45-32.97 159.615 60.87 81.405 0-0.015 46.92-31.185-20.295 40.68zM542.51 374.885c-39.165-2.145-69.18-35.73-67.035-75 2.13-39.27 35.625-69.375 74.79-67.23 39.165 2.145 69.18 35.73 67.035 75-2.13 39.285-35.625 69.375-74.79 67.23z" fill="#0e932e" p-id="5992"></path></svg>