<svg t="1709543850816" class="icon" viewBox="0 0 1024 1024" version="1.1" xmlns="http://www.w3.org/2000/svg" p-id="67441" width="16" height="16"><path d="M0 0h1024v1024H0z" fill="#D8D8D8" fill-opacity="0" p-id="67442"></path><path d="M707.2 246.592H382.784v-120.96c0-36.224 29.696-65.92 65.984-65.92h445.184c36.288 0 65.984 29.696 65.984 65.92V570.88c0 36.288-29.696 65.92-65.92 65.92h-120.96V312.64c0-36.288-29.696-65.92-65.92-65.92z" fill="#467CFD" opacity=".5" p-id="67443"></path><path d="M113.536 829.248V384c0-36.288 29.696-65.92 65.92-65.92h445.248c36.288 0 65.92 29.632 65.92 65.92v445.248c0 36.224-29.632 65.92-65.92 65.92H179.52c-36.288 0-65.92-29.696-65.92-65.92z" fill="#467CFD" p-id="67444"></path></svg>