<!--
  - Copyright 2024 XIN LIN HOU<hxl49508@gmail.com>
  - xxl-job.svg is part of Cool Request
  -
  - License: GPL-3.0+
  -
  - Cool Request is free software: you can redistribute it and/or modify
  - it under the terms of the GNU General Public License as published by
  - the Free Software Foundation, either version 3 of the License, or
  - (at your option) any later version.
  -
  - Cool Request is distributed in the hope that it will be useful,
  - but WITHOUT ANY WARRANTY; without even the implied warranty of
  - MERCHANTABILITY or FITNESS FOR A PARTICULAR PURPOSE.  See the
  - GNU General Public License for more details.
  -
  - You should have received a copy of the GNU General Public License
  - along with Cool Request.  If not, see <http://www.gnu.org/licenses/>.
  -->

<svg t="1709208080041" class="icon" viewBox="0 0 1024 1024" version="1.1" xmlns="http://www.w3.org/2000/svg" p-id="6388" width="16" height="16"><path d="M64 466.176c4.48-29.44 8.448-59.264 13.248-88.704 1.92-10.368 5.504-20.416 9.728-30.464 38.528-95.168 100.736-171.264 189.12-224.064C342.464 83.136 415.616 64.96 493.44 64c52.8-0.64 104.96 0.32 156.096 14.912 41.408 11.648 80.96 28.16 115.584 53.44 29.44 21.376 58.624 45.312 82.24 73.152 53.76 63.168 91.968 134.4 101.056 218.88 2.88 27.2 9.728 54.08 9.088 80.96-1.92 79.04-23.04 152.832-68.352 218.624a265.344 265.344 0 0 0-25.6 47.232c9.088-10.048 17.792-20.096 28.48-31.744 0.384 24.32-2.88 44.736-16.512 62.528-30.72 40.128-66.048 77.056-113.28 94.848-52.16 19.456-102.4 46.016-159.68 50.24-25.92 1.92-51.2 8.384-77.056 12.608h-16.192c9.408-3.2 18.432-6.144 28.8-9.728-7.104 0-13.248 0.32-19.712 0a435.072 435.072 0 0 1-164.48-38.208c-88.128-39.808-153.536-105.6-201.472-188.48-55.36-96.128-69.632-199.424-45.952-307.584 7.104-33.024 14.912-68.032 31.744-96.192a672.064 672.064 0 0 1 136.96-162.56c3.2-2.56 7.424-4.48 10.688-6.784 3.52-2.56 6.464-5.504 9.728-8.128l-3.264-3.2c-56.32 33.664-104.96 76.096-142.784 131.136-37.888 55.04-60.864 115.584-70.912 184.896-1.664-7.104-2.304-10.688-3.584-17.472-3.84 29.12-7.424 54.72-11.008 80.64v-51.84z m459.2 456.96c25.216-1.664 50.816-0.384 75.072-5.568 25.28-5.12 49.28-16.192 73.216-25.6a307.776 307.776 0 0 0 135.04-103.296 36.224 36.224 0 0 0 4.864-7.744c-13.312-9.728 1.6-13.888 4.48-19.136 16.896-31.36 37.888-60.8 51.2-93.568a430.72 430.72 0 0 0 26.88-227.968 412.416 412.416 0 0 0-96.192-209.152 402.624 402.624 0 0 0-180.352-121.472c-39.488-13.248-80.96-24.96-122.752-19.392-111.68 13.888-203.008 67.008-273.92 153.792-83.84 102.656-118.848 220.544-94.912 351.68 24.64 134.4 100.096 232.512 223.104 293.696 55.04 27.2 113.664 34.944 174.272 33.664z m238.592-768.128c155.776 126.272 200.128 289.472 159.68 483.776 84.48-127.936-16.512-430.336-159.68-483.84z m161.28 315.712c0 124.032-33.28 236.672-112.64 333.504 86.72-94.208 122.368-206.272 112.64-333.504z" fill="#469ae4" p-id="6389"></path><path d="M529.664 485.312l62.784 93.568a32.192 32.192 0 0 0 12.032 10.368 32.64 32.64 0 0 0 13.888 3.2h5.504v7.488h-80.64v-7.488h7.488c6.144 0 9.984-0.96 11.968-3.2 1.92-1.92 1.6-4.864-0.96-8.128l-48.64-72.512-43.008 58.88c-2.56 4.224-4.864 7.488-6.464 10.432a17.472 17.472 0 0 0-2.944 5.504c0 3.2 1.6 5.504 4.48 6.784 2.944 1.28 7.168 1.92 12.032 1.92h3.584v7.488H411.776v-7.488h7.424c6.208 0 11.712-1.28 16.512-3.52a34.56 34.56 0 0 0 11.008-8.768l58.304-83.2-61.824-92.288a13.376 13.376 0 0 0-6.464-6.144 26.24 26.24 0 0 0-12.032-2.56H417.28v-7.488h78.72v7.424h-5.504c-7.488 0-11.712 1.28-12.992 3.584-1.28 2.24-0.64 6.144 1.92 11.008l41.792 62.464 41.792-59.904c3.84-5.76 5.12-10.048 3.84-12.928-1.28-2.944-5.44-4.224-12.928-4.224h-10.688v-7.424h72.896v7.424h-11.008a22.976 22.976 0 0 0-9.088 2.56 44.032 44.032 0 0 0-11.008 7.488l-55.36 79.68zM708.416 582.4c0 3.264 1.6 5.888 4.48 7.488 2.944 1.6 7.168 2.56 12.032 2.56h49.536c17.152 0 31.744-3.52 44.032-10.368 12.288-7.04 21.376-17.792 27.52-32.64l9.088 2.56-16.512 48.256h-189.44v-7.488h12.928c6.144 0 10.368-0.64 12.928-2.56 2.624-1.6 3.584-4.224 3.584-7.424V406.272a8.32 8.32 0 0 0-3.84-7.424 27.008 27.008 0 0 0-13.632-2.56h-11.648v-7.488h88.384v7.424h-12.928a25.28 25.28 0 0 0-12.032 2.56 8.256 8.256 0 0 0-4.48 7.488V582.4zM294.208 485.312l62.848 93.568a32.192 32.192 0 0 0 11.968 10.368 32.64 32.64 0 0 0 13.952 3.2h5.504v7.488H307.84v-7.488h7.424c6.144 0 10.048-0.96 11.968-3.2 1.92-1.92 1.664-4.864-0.96-8.128L277.76 508.608l-43.072 58.88c-2.56 4.224-4.8 7.488-6.4 10.432a17.472 17.472 0 0 0-2.944 5.504c0 3.2 1.6 5.504 4.48 6.784 2.944 1.28 7.168 1.92 12.032 1.92h3.52v7.488H176.704v-7.488h7.104c6.144 0 11.648-1.28 16.512-3.52a34.56 34.56 0 0 0 11.008-8.768l58.24-83.2-61.824-92.288a13.376 13.376 0 0 0-6.4-6.144 26.24 26.24 0 0 0-12.032-2.56h-7.424v-7.488h78.72v7.424h-5.568c-7.424 0-11.648 1.28-12.928 3.584-1.28 2.24-0.64 6.144 1.92 11.008l41.792 62.464 41.792-59.904c3.84-5.76 5.12-10.048 3.84-12.928-1.28-2.944-5.504-4.224-12.928-4.224h-11.008v-7.424h72.832v7.424h-11.008a22.976 22.976 0 0 0-9.024 2.56 44.032 44.032 0 0 0-11.008 7.488l-55.04 79.68z" fill="#469ae4" p-id="6390"></path></svg>