<!--
  - Copyright 2024 XIN LIN HOU<hxl49508@gmail.com>
  - spring.svg is part of Cool Request
  -
  - License: GPL-3.0+
  -
  - Cool Request is free software: you can redistribute it and/or modify
  - it under the terms of the GNU General Public License as published by
  - the Free Software Foundation, either version 3 of the License, or
  - (at your option) any later version.
  -
  - Cool Request is distributed in the hope that it will be useful,
  - but WITHOUT ANY WARRANTY; without even the implied warranty of
  - MERCHANTABILITY or FITNESS FOR A PARTICULAR PURPOSE.  See the
  - GNU General Public License for more details.
  -
  - You should have received a copy of the GNU General Public License
  - along with Cool Request.  If not, see <http://www.gnu.org/licenses/>.
  -->

<svg xmlns="http://www.w3.org/2000/svg" width="18" height="18" viewBox="0 0 13 13">
  <path fill="#6E6E6E" d="M11.5426614,9.03784945 C9.75466613,11.4182167 5.93781487,10.6194888 3.48965026,10.7302036 C3.48965026,10.7302036 3.05627677,10.7548069 2.61938707,10.8268593 C2.61938707,10.8268593 2.78464917,10.7565642 2.99562207,10.6836331 C4.71417209,10.0896396 5.52729678,9.970138 6.57249166,9.43325929 C8.53453956,8.4280396 10.488676,6.23922643 10.8851292,3.96518047 C10.1379335,6.15311495 7.86557968,8.03526582 5.79716627,8.79796747 C4.38013168,9.31990847 1.81856913,9.82954783 1.81856913,9.83042652 L1.7148408,9.77506914 C-0.0274436797,8.92801338 -0.0757916343,5.15756083 3.08704365,3.94233457 C4.47419043,3.40897062 5.80068249,3.70245259 7.29946908,3.34482636 C8.8984678,2.9652329 10.7497549,1.76318697 11.5022249,0.200000048 C12.3469955,2.70250503 13.3605445,6.6170625 11.5426614,9.03784945 Z"/>
</svg>
